<svg xmlns="http://www.w3.org/2000/svg" width="58.165" height="34.899" viewBox="0 0 58.165 34.899">
  <path id="Icon_awesome-money-bill" data-name="Icon awesome-money-bill" d="M55.257,4.5H2.908A2.909,2.909,0,0,0,0,7.408V36.491A2.909,2.909,0,0,0,2.908,39.4H55.257a2.909,2.909,0,0,0,2.908-2.908V7.408A2.909,2.909,0,0,0,55.257,4.5ZM4.362,35.037V29.22a5.816,5.816,0,0,1,5.817,5.816Zm0-20.358V8.862h5.817A5.816,5.816,0,0,1,4.362,14.679Zm24.72,16c-4.016,0-7.271-3.907-7.271-8.725s3.255-8.725,7.271-8.725,7.271,3.906,7.271,8.725S33.1,30.674,29.083,30.674ZM53.8,35.037H47.986A5.816,5.816,0,0,1,53.8,29.22Zm0-20.358a5.816,5.816,0,0,1-5.817-5.816H53.8Z" transform="translate(0 -4.5)" fill="#fff"/>
</svg>
