<svg xmlns="http://www.w3.org/2000/svg" xmlns:xlink="http://www.w3.org/1999/xlink" width="109.035" height="97.656" viewBox="0 0 109.035 97.656">
  <defs>
    <filter id="Sustracci贸n_1" x="0" y="0" width="109.035" height="97.656" filterUnits="userSpaceOnUse">
      <feOffset dy="3" input="SourceAlpha"/>
      <feGaussianBlur stdDeviation="3" result="blur"/>
      <feFlood flood-opacity="0.161"/>
      <feComposite operator="in" in2="blur"/>
      <feComposite in="SourceGraphic"/>
    </filter>
  </defs>
  <g transform="matrix(1, 0, 0, 1, 0, 0)" filter="url(#Sustracci贸n_1)">
    <path id="Sustracci贸n_1-2" data-name="Sustracci贸n 1" d="M-2691.1,451.656c-4.522,0-8.221-1.219-11.8-2.4-3.214-1.059-6.25-2.06-9.584-2.06-3.29,0-6.3.993-9.488,2.045-3.6,1.187-7.313,2.414-11.894,2.414-7.987,0-12.756-3.705-12.756-9.912a19.256,19.256,0,0,1,.888-5.486,33.385,33.385,0,0,1,2.461-5.89,53.856,53.856,0,0,1,8.426-11.593,51.161,51.161,0,0,1,11.073-9.01A30.182,30.182,0,0,1-2718,407.1a17.808,17.808,0,0,1,5.52-.965,17.813,17.813,0,0,1,5.521.965,30.194,30.194,0,0,1,5.77,2.661,51.181,51.181,0,0,1,11.073,9.01,53.853,53.853,0,0,1,8.426,11.593,33.366,33.366,0,0,1,2.461,5.89,19.255,19.255,0,0,1,.888,5.486C-2678.344,447.951-2683.112,451.656-2691.1,451.656Zm-24.1-29.3h0v19.524a1.632,1.632,0,0,0,1.631,1.631h2.174a1.633,1.633,0,0,0,1.631-1.631V422.352l7.792,8.18a1.621,1.621,0,0,0,1.18.5,1.616,1.616,0,0,0,1.15-.476l1.509-1.508a1.606,1.606,0,0,0,.479-1.145,1.621,1.621,0,0,0-.479-1.158l-13.2-13.2a1.6,1.6,0,0,0-1.149-.479,1.621,1.621,0,0,0-1.154.479l-13.2,13.207a1.607,1.607,0,0,0-.479,1.145,1.623,1.623,0,0,0,.479,1.159l1.508,1.508a1.606,1.606,0,0,0,1.15.481,1.612,1.612,0,0,0,1.18-.508l7.8-8.185Zm36.848-4.832h0a8.284,8.284,0,0,1-1.923-.225,7.878,7.878,0,0,1-3.025-1.451,8.643,8.643,0,0,1-2.18-2.533,12.024,12.024,0,0,1-.821-9.412,14.169,14.169,0,0,1,1.726-3.708,13.236,13.236,0,0,1,2.56-2.888,10.3,10.3,0,0,1,6.515-2.543,8.279,8.279,0,0,1,1.922.225,7.879,7.879,0,0,1,3.025,1.451,8.643,8.643,0,0,1,2.18,2.533,12.024,12.024,0,0,1,.821,9.411,14.168,14.168,0,0,1-1.726,3.708,13.236,13.236,0,0,1-2.56,2.888A10.3,10.3,0,0,1-2678.349,417.52Zm-68.268,0a10.3,10.3,0,0,1-6.516-2.543,13.235,13.235,0,0,1-2.559-2.888,14.141,14.141,0,0,1-1.726-3.708,12.024,12.024,0,0,1,.821-9.411,8.638,8.638,0,0,1,2.18-2.533,7.879,7.879,0,0,1,3.025-1.451,8.279,8.279,0,0,1,1.923-.225,10.3,10.3,0,0,1,6.516,2.542,13.238,13.238,0,0,1,2.56,2.888,14.157,14.157,0,0,1,1.726,3.708,12.025,12.025,0,0,1-.821,9.411,8.639,8.639,0,0,1-2.18,2.533,7.881,7.881,0,0,1-3.025,1.451A8.279,8.279,0,0,1-2746.616,417.518Zm21.1-17.069h0c-5.038,0-10.026-4.88-11.859-11.6a19.334,19.334,0,0,1-.631-6.817,14.085,14.085,0,0,1,1.718-5.689,8.321,8.321,0,0,1,5.061-4.094,7.523,7.523,0,0,1,1.913-.246c5.039,0,10.027,4.879,11.86,11.6a19.336,19.336,0,0,1,.631,6.817,14.086,14.086,0,0,1-1.718,5.689,8.319,8.319,0,0,1-5.062,4.094A7.511,7.511,0,0,1-2725.518,400.449Zm26.072,0h0a7.52,7.52,0,0,1-1.913-.246,8.319,8.319,0,0,1-5.062-4.094,14.084,14.084,0,0,1-1.718-5.689,19.336,19.336,0,0,1,.631-6.817c1.834-6.723,6.821-11.6,11.859-11.6a7.518,7.518,0,0,1,1.914.247,8.324,8.324,0,0,1,5.062,4.1,14.086,14.086,0,0,1,1.717,5.688,19.347,19.347,0,0,1-.631,6.816C-2689.419,395.569-2694.406,400.448-2699.445,400.448Z" transform="translate(2767 -366)" fill="#c3ff9f"/>
  </g>
</svg>
