<svg xmlns="http://www.w3.org/2000/svg" width="351.988" height="86.927" viewBox="0 0 351.988 86.927">
  <g id="Capa_2" data-name="Capa 2" transform="translate(0.128 0.002)">
    <g id="sombra" transform="translate(3.35 3.491)">
      <path id="Trazado_60" data-name="Trazado 60" d="M6.806,9.3s-2.368,39.713,0,64.487H18.827V47.541l13.844-.727V72.5l11.663.369s-1.994-54.279.919-66.3L32.478,6l-.353,30.418-13.844.737.566-27.521Z" transform="translate(-5.753 -6)" fill="#006837" stroke="#006837" stroke-miterlimit="10" stroke-width="2"/>
      <path id="Trazado_61" data-name="Trazado 61" d="M323.47,37.213l10.385.691a78.065,78.065,0,0,0,3.635,28.388s5.364-31.846,8.308-33.752l8.308,5.364s-11.772,34.967-14.716,59.544H328.834s2.934-13.9,5.483-20.646C334.317,76.8,324.851,68.369,323.47,37.213Z" transform="translate(-158.492 -18.759)" fill="#006837" stroke="#006837" stroke-miterlimit="10" stroke-width="2"/>
      <path id="Trazado_62" data-name="Trazado 62" d="M217.64,47.6c-1.039-8.827-5.883-12.634-11.943-12.114a8.87,8.87,0,0,0-7.618,6.231V33.231l-9-.691c-3.287,6.75-1.21,64.389-1.21,64.389l10.037,1.039-.171-21.638C212.447,83.428,218.679,56.426,217.64,47.6ZM206.881,57.657c-3.043,16.648-9.492,10.307-9.492,10.307V53.425c2.8-9.113,5.478-9.643,5.478-9.643S209.924,41.014,206.881,57.657Z" transform="translate(-92.993 -18.759)" fill="#006837" stroke="#006837" stroke-miterlimit="10" stroke-width="2"/>
      <path id="Trazado_63" data-name="Trazado 63" d="M287.1,53.6c-1.039-8.827-5.883-12.634-11.943-12.114a8.87,8.87,0,0,0-7.618,6.231V39.231l-9-.691c-3.287,6.75-1.21,64.389-1.21,64.389l10.037,1.039L267.2,82.329C281.907,89.428,288.139,62.426,287.1,53.6ZM276.829,63.916c-3.043,16.648-9.492,10.307-9.492,10.307V59.684c2.8-9.113,5.478-9.643,5.478-9.643S279.872,47.274,276.829,63.916Z" transform="translate(-126.385 -21.643)" fill="#006837" stroke="#006837" stroke-miterlimit="10" stroke-width="2"/>
      <path id="Trazado_64" data-name="Trazado 64" d="M420.325,35.853c-1.09-9.284-6.2-13.288-12.556-12.738s-8.012,6.553-8.012,6.553V20.748L390.291,20c-3.458,7.1-1.272,67.712-1.272,67.712l10.557,1.09-.182-22.754C414.868,73.536,421.421,45.138,420.325,35.853Zm-10.8,10.853c-3.193,17.5-9.985,10.837-9.985,10.837V42.261c2.944-9.586,5.753-10.141,5.753-10.141S412.729,29.2,409.53,46.706Z" transform="translate(-189.676 -12.73)" fill="#006837" stroke="#006837" stroke-miterlimit="10" stroke-width="2"/>
      <path id="Trazado_65" data-name="Trazado 65" d="M489.492,37.043a1.641,1.641,0,0,0-.265-1.324,1.62,1.62,0,0,0-1.3-.291,27.126,27.126,0,0,0-12.2,4.05l.519.426a12.228,12.228,0,0,0-1.6-.088,20.3,20.3,0,0,0-5.712.846l.213-.161A27.043,27.043,0,0,0,457.2,35.8a1.228,1.228,0,0,0-1.656,1.521,47.091,47.091,0,0,0,2.009,11.7l1.449-1.064a27.188,27.188,0,0,0-4.341,9.778s-6.927,24.836,3.458,33.492,22.848,3.806,30.117-8.308L480.109,77.2s-11.424,21.638-14.887-1.558l23.715-4.673s1.106-14.067-3.193-23.294l1.137.935a46.835,46.835,0,0,0,2.612-11.569ZM466.125,66.771s-.026-8.5,5.161-15.022c6.351-8,6.428,12.738,6.428,12.738Z" transform="translate(-220.474 -20.131)" fill="#006837"/>
      <path id="Trazado_66" data-name="Trazado 66" d="M489.6,35.561c.073-7.088-13.272-.628-16.1,1.09a1.568,1.568,0,0,0-.317,2.446l.519.426,1.1-2.659a21.809,21.809,0,0,0-7.747.81l1.2,2.851.218-.161a1.584,1.584,0,0,0,0-2.69A30.008,30.008,0,0,0,461.205,34c-1.932-.654-5.193-1.947-7.192-.966s-1.48,3.458-1.3,5.276a51.668,51.668,0,0,0,1.89,9.643,1.564,1.564,0,0,0,2.29.929l1.444-1.039L456.2,45.713c-4.964,7.2-6.548,17.177-6.8,25.761-.156,5.509.384,11.678,3.521,16.388A18.673,18.673,0,0,0,469.4,95.65c8.2-.717,14.591-6.693,18.725-13.407a1.6,1.6,0,0,0-.556-2.134L479.437,74.4a1.558,1.558,0,0,0-2.129.561,25.621,25.621,0,0,1-5,6.828c-.945.867-2.347,2.077-3.661,1.3-2.55-1.449-3-6.844-3.386-9.347l-1.085,1.916,23.71-4.673a1.584,1.584,0,0,0,1.148-1.5c.608-7.986-.114-16.725-3.406-24.083l-2.446,1.89,1.137.935a1.584,1.584,0,0,0,2.6-.685,52.385,52.385,0,0,0,2.7-11.985c.213-1.994-2.9-1.978-3.116,0a48.971,48.971,0,0,1-2.6,11.154l2.6-.685-1.142-.935a1.558,1.558,0,0,0-2.425,1.89c3.053,6.833,3.541,15.111,2.981,22.51l1.142-1.5-23.715,4.673a1.593,1.593,0,0,0-1.085,1.916c.768,4.876,3.323,15.126,10.385,10.868,3.225-1.952,5.629-5.67,7.368-8.937l-2.134.556,8.137,5.712-.561-2.129c-3.464,5.624-8.744,10.9-15.578,11.808-5.712.732-12.1-2.2-14.892-7.311-4.211-7.711-2.6-18.418-.706-26.6a31.571,31.571,0,0,1,4.673-11.284c.862-1.246-.878-3.053-2.129-2.134l-1.449,1.039,2.29.929a50.369,50.369,0,0,1-1.376-5.785q-.3-1.75-.452-3.521c-.057-.654-.1-1.314-.13-1.978l.961.187c3.463-.026,7.56,2.467,10.307,4.341V37.674l-.218.161c-1.345.987-.613,3.354,1.2,2.846a19.213,19.213,0,0,1,6.917-.7,1.573,1.573,0,0,0,1.106-2.659l-.519-.426-.317,2.446a26.645,26.645,0,0,1,5.894-2.731c.743-.234,5.53-1.309,5.53-1.039C486.462,37.565,489.578,37.565,489.6,35.561Z" transform="translate(-219.023 -18.649)" fill="#006837"/>
      <path id="Trazado_67" data-name="Trazado 67" d="M478.946,78.752a24.556,24.556,0,0,1,1.9-8.973c.613-1.527,2.171-5.5,3.894-6.091.654-.218.519-.182.966.576,1.869,3.328,1.708,8.469,1.724,12.2l1.142-1.506-11.606,2.29c-1.963.384-1.132,3.391.831,3l11.632-2.285a1.558,1.558,0,0,0,1.142-1.5,58.27,58.27,0,0,0-.473-7.119c-.338-2.669-.7-6.787-3.173-8.459-3.495-2.357-6.7,3.167-7.934,5.556a27.76,27.76,0,0,0-3.116,12.307C475.82,80.756,478.936,80.762,478.946,78.752Z" transform="translate(-231.742 -32.112)" fill="#006837"/>
      <path id="Trazado_68" data-name="Trazado 68" d="M541.208,12.518s-1.8-1.039.794,18.6L529.8,33.2l2.077,9.347,11.164-1.558s1.085,17.224,4.933,40.243l12.462,1.039a328.973,328.973,0,0,1-6.231-42.839l13.76-1.558L568.485,28,552.648,29.56a77.449,77.449,0,0,1-.966-19.42Z" transform="translate(-257.682 -7.99)" fill="#006837" stroke="#006837" stroke-miterlimit="10" stroke-width="2"/>
      <path id="Trazado_69" data-name="Trazado 69" d="M607.291,69.363l7.052-6.081s7.145,13.823,14.861,10.094c6.319-3.048,3.3-13.407-1.838-17.027-2.254-1.589-4.377-3.635-6.605-5.245-5.084-3.723-8.08-9.388-5.821-15.412,1.656-4.409,5.52-6.231,9.98-6.5,9.347-.519,13.08,7.654,13.08,7.654l-4.673,6.018s-2.835-5.011-5.992-6.117c-3.822-1.324-6.683,5.94,3.926,11.336,10.385,5.276,12.3,13.527,10.635,22.084-1.267,6.522-7.654,12.317-13.984,13.75a15.944,15.944,0,0,1-12.857-3.116,20.9,20.9,0,0,1-4.736-5.037,25.2,25.2,0,0,1-1.734-3.017C608.391,72.328,607.036,69.612,607.291,69.363Z" transform="translate(-294.92 -17.141)" fill="#006837" stroke="#006837" stroke-miterlimit="10" stroke-width="2"/>
      <path id="Trazado_70" data-name="Trazado 70" d="M133.7,38.771s-.519-23.533-17.567-21.051S96.265,41.258,96.265,41.258h11.766c.556-5.5,5.473-12.6,9.451-9.944s2.155,9.347,2.321,13.189c-11.221.665-23.772,5.712-25.319,18.47A14.539,14.539,0,0,0,107.263,79.05a20.615,20.615,0,0,0,9.985-1.63c.322-.135,4.793-1.745,4.71-2.171l.306,4.154,10.276.992C132.374,70.742,133.7,38.771,133.7,38.771ZM114.678,54.7c.395-.634,1.869-.987,2.3-.41a3.557,3.557,0,0,1,1.8,2.077,2.077,2.077,0,0,1-1.085,2.4,1,1,0,0,1-.441.088,1.236,1.236,0,0,1-.405-.109,4.154,4.154,0,0,1-2.077-1.942,2.171,2.171,0,0,1-.088-2.1Zm-7.41,12.364a1.075,1.075,0,0,1-.2.41,2.077,2.077,0,0,1-2.6.452,3.515,3.515,0,0,1-1.558-2.254c-.457-.556.254-1.9.966-2.124a2.181,2.181,0,0,1,2,.582,4.154,4.154,0,0,1,1.36,2.524,1.21,1.21,0,0,1,.026.41Zm.395-6.47a1.039,1.039,0,0,1-.2.41,2.077,2.077,0,0,1-2.6.452,3.536,3.536,0,0,1-1.558-2.259c-.457-.55.26-1.9.966-2.119a2.165,2.165,0,0,1,2,.582,4.154,4.154,0,0,1,1.36,2.518,1.241,1.241,0,0,1,.052.415Zm1.2-7.119a2.15,2.15,0,0,1,2,.582,4.123,4.123,0,0,1,1.36,2.518,1.236,1.236,0,0,1,0,.415,1.152,1.152,0,0,1-.2.41,2.077,2.077,0,0,1-2.6.447,3.505,3.505,0,0,1-1.558-2.254C107.444,55.04,108.156,53.7,108.867,53.477Zm10.458,11.18a16.009,16.009,0,0,1-6.174,5.265,6.382,6.382,0,0,1-2.731.753,1.839,1.839,0,0,1-1.906-1.22c-.312-1.246.992-2.892.561-4.087-.093-.249-.26-.462-.369-.7-.519-1.039-.093-2.269,1.09-3.292,1.039-.883,2.4-1.849,3.521-1.558.883.223,1.163,1.075,2.145,1.039a9.65,9.65,0,0,0,2.394-.691,1.786,1.786,0,0,1,2.363,1.527A4.154,4.154,0,0,1,119.325,64.656Z" transform="translate(-48.364 -11.546)" fill="#006837" stroke="#006837" stroke-miterlimit="10" stroke-width="2"/>
    </g>
    <g id="Capa_4" data-name="Capa 4" transform="translate(0.753 0.78)">
      <path id="Trazado_71" data-name="Trazado 71" d="M1.806,4.062s-2.368,39.713,0,64.487H13.827V42.316l13.844-.727V67.272l11.663.363s-1.994-54.279.919-66.3L27.478.78,27.125,31.2l-13.844.727L13.863,4.42Z" transform="translate(-0.753 -0.78)" fill="#c3ff9f" stroke="#006837" stroke-miterlimit="10" stroke-width="1.5"/>
      <path id="Trazado_72" data-name="Trazado 72" d="M318.47,31.963l10.385.691a78.072,78.072,0,0,0,3.635,28.388s5.364-31.852,8.308-33.752l8.308,5.364S337.335,67.642,334.391,92.2H323.834s2.934-13.9,5.483-20.651C329.317,71.547,319.851,63.119,318.47,31.963Z" transform="translate(-153.492 -13.524)" fill="#c3ff9f" stroke="#006837" stroke-miterlimit="10" stroke-width="1.5"/>
      <path id="Trazado_73" data-name="Trazado 73" d="M212.64,42.349c-1.039-8.827-5.883-12.639-11.943-12.12a8.87,8.87,0,0,0-7.618,6.231v-8.48l-9-.691c-3.287,6.75-1.21,64.389-1.21,64.389l10.037,1.039-.171-21.638C207.447,78.178,213.679,51.176,212.64,42.349ZM201.881,52.407c-3.043,16.648-9.492,10.3-9.492,10.3V48.17c2.8-9.087,5.478-9.606,5.478-9.606S204.924,35.764,201.881,52.407Z" transform="translate(-87.993 -13.524)" fill="#c3ff9f" stroke="#006837" stroke-miterlimit="10" stroke-width="1.5"/>
      <path id="Trazado_74" data-name="Trazado 74" d="M282.1,48.349c-1.039-8.827-5.883-12.639-11.943-12.12a8.87,8.87,0,0,0-7.618,6.231v-8.48l-9-.691c-3.287,6.75-1.21,64.389-1.21,64.389l10.037,1.039L262.2,77.079C276.907,84.178,283.139,57.176,282.1,48.349ZM271.829,58.666c-3.043,16.648-9.492,10.3-9.492,10.3V54.429c2.8-9.113,5.478-9.643,5.478-9.643S274.872,42.024,271.829,58.666Z" transform="translate(-121.385 -16.409)" fill="#c3ff9f" stroke="#006837" stroke-miterlimit="10" stroke-width="1.5"/>
      <path id="Trazado_75" data-name="Trazado 75" d="M415.325,30.618c-1.09-9.284-6.2-13.288-12.556-12.743s-8.012,6.553-8.012,6.553V15.507l-9.466-.727c-3.458,7.1-1.272,67.712-1.272,67.712l10.567,1.1L394.4,60.833C409.868,68.3,416.421,39.9,415.325,30.618ZM404.53,41.47c-3.193,17.5-9.985,10.837-9.985,10.837V37.025c2.944-9.586,5.753-10.141,5.753-10.141S407.729,23.966,404.53,41.47Z" transform="translate(-184.676 -7.51)" fill="#c3ff9f" stroke="#006837" stroke-miterlimit="10" stroke-width="1.5"/>
      <path id="Trazado_76" data-name="Trazado 76" d="M484.492,31.792a1.641,1.641,0,0,0-.265-1.324,1.6,1.6,0,0,0-1.3-.291,27.126,27.126,0,0,0-12.2,4.045l.519.426a12.228,12.228,0,0,0-1.6-.088,20.5,20.5,0,0,0-5.712.841l.213-.156a27.11,27.11,0,0,0-11.943-4.71,1.641,1.641,0,0,0-1.324.223,1.62,1.62,0,0,0-.332,1.3,47.131,47.131,0,0,0,2.01,11.7l1.449-1.064a27.189,27.189,0,0,0-4.341,9.778s-6.927,24.836,3.458,33.492,22.848,3.806,30.117-8.308l-8.132-5.712s-11.424,21.638-14.887-1.558l23.715-4.673s1.106-14.067-3.193-23.3l1.137.94A46.837,46.837,0,0,0,484.492,31.792ZM461.125,61.52s-.026-8.5,5.161-15.022c6.351-8,6.428,12.732,6.428,12.732Z" transform="translate(-215.474 -14.895)" fill="#c3ff9f"/>
      <path id="Trazado_77" data-name="Trazado 77" d="M484.5,31.368c.052-5.265-12.27.836-14.352,2.077a.395.395,0,0,0-.078.613l.519.426.275-.665a20.688,20.688,0,0,0-7.436.789l.3.711.213-.156a.395.395,0,0,0,0-.675,28.623,28.623,0,0,0-7-3.557c-1.485-.519-5.068-2.03-6.574-.971-1.163.826-.55,3.017-.441,4.154a50.006,50.006,0,0,0,1.849,9.347.389.389,0,0,0,.571.234l1.449-1.039-.519-.519c-4.855,7.046-6.392,16.777-6.636,25.174-.151,5.312.332,11.252,3.36,15.8a17.384,17.384,0,0,0,15.469,7.213c7.789-.7,13.812-6.48,17.717-12.826a.4.4,0,0,0-.14-.519l-8.137-5.712a.384.384,0,0,0-.519.14c-1.656,3.116-7.467,12.6-11.367,7.457a11.517,11.517,0,0,1-1.646-3.547c-.208-.67-.384-1.35-.545-2.036a14.083,14.083,0,0,1-.675-2.648c.088-.4-.187-.036.452-.343a8.385,8.385,0,0,1,1.8-.353l11.912-2.352,9.347-1.838a.4.4,0,0,0,.286-.374c.587-7.789-.047-16.336-3.245-23.491l-.613.467,1.137.94a.4.4,0,0,0,.654-.171,51.152,51.152,0,0,0,2.659-11.673c.052-.519-.727-.519-.779,0a49.992,49.992,0,0,1-2.679,11.393l.649-.171-1.137-.94a.395.395,0,0,0-.613.473c2.742,6.132,3.339,13.117,3.261,19.768,0,.8-.088,1.625-.068,2.43s-.306.852.218.519a10.145,10.145,0,0,1-2.788.55L459.7,69.585a.4.4,0,0,0-.27.478c.519,3.178,1.142,8.926,4.533,10.629,1.978,1,4.014-.2,5.509-1.521a25.718,25.718,0,0,0,4.756-6.07,4.671,4.671,0,0,0,.587-1.007c.177-.68.384.073-.3-.223a22.071,22.071,0,0,1,3.412,2.4l2.461,1.724c.431.3,1.558.81,1.812,1.277.322.587.156.239-.6,1.153a60.769,60.769,0,0,1-3.879,4.772c-4.367,4.362-10.422,7.27-16.694,6.055a16.045,16.045,0,0,1-12.192-10.276c-1.558-4.435-1.646-9.316-1.329-13.953.519-7.623,2.01-16.128,6.418-22.52.213-.312-.218-.763-.519-.519s-.758.732-1.07.789c-.389.369-.415.218-.083-.447-.182-.633-.348-1.272-.519-1.916-.545-2.306-1.558-5.421-1.163-7.732q-.556-1.9,1.963-2.01.857.14,1.7.343,1.262.3,2.492.711a28.175,28.175,0,0,1,6.818,3.484V34.53l-.213.161a.389.389,0,0,0,.3.711,20,20,0,0,1,7.228-.743.395.395,0,0,0,.275-.67c-.41-.338,1.142-.82,1.667-1.08a25.763,25.763,0,0,1,3.505-1.444c1.21-.405,7.441-2.6,7.415-.057a.39.39,0,0,0,.779-.042Z" transform="translate(-215.095 -14.471)" fill="#006837"/>
      <path id="Trazado_78" data-name="Trazado 78" d="M473.825,74.582c0-5.089,1.859-12.358,5.914-15.7,3.6-2.97,4.362,5.473,4.575,7.524.161,1.558.26,3.173.306,4.762a3.852,3.852,0,0,1,0,1.039c.2-.6.068-.156-.618-.135a38.966,38.966,0,0,0-6.127,1.2l-4.564.9c-.493.093-.286.846.208.748l11.6-2.285a.389.389,0,0,0,.286-.379,58.155,58.155,0,0,0-.473-7.114c-.28-2.171-.55-6.065-2.6-7.451-2.747-1.859-5.483,3.479-6.34,5.135a26.482,26.482,0,0,0-2.97,11.72.4.4,0,1,0,.8.026Z" transform="translate(-227.789 -27.958)" fill="#006837"/>
      <path id="Trazado_79" data-name="Trazado 79" d="M536.208,7.263s-1.8-1.039.794,18.6L524.8,27.94l2.077,9.347,11.164-1.558s1.085,17.224,4.933,40.243l12.462,1.039a328.973,328.973,0,0,1-6.231-42.839l13.76-1.558.519-9.866-15.838,1.558a77.493,77.493,0,0,1-.966-19.426Z" transform="translate(-252.682 -2.751)" fill="#c3ff9f" stroke="#006837" stroke-miterlimit="10" stroke-width="1.5"/>
      <path id="Trazado_80" data-name="Trazado 80" d="M602.291,64.1l7.052-6.075S616.487,71.85,624.2,68.122c6.319-3.053,3.3-13.407-1.838-17.027-2.254-1.589-4.377-3.635-6.605-5.245-5.084-3.718-8.08-9.393-5.821-15.412,1.656-4.409,5.52-6.231,9.98-6.5C629.266,23.419,633,31.6,633,31.6l-4.673,6.018s-2.835-5.011-5.992-6.117c-3.822-1.309-6.683,5.961,3.926,11.336,10.385,5.271,12.3,13.527,10.635,22.084-1.267,6.517-7.654,12.317-13.984,13.75a15.944,15.944,0,0,1-12.857-3.116,20.822,20.822,0,0,1-4.736-5.042,24.408,24.408,0,0,1-1.734-3.017C603.391,67.058,602.036,64.352,602.291,64.1Z" transform="translate(-289.92 -11.902)" fill="#c3ff9f" stroke="#006837" stroke-miterlimit="10" stroke-width="1.5"/>
      <path id="Trazado_81" data-name="Trazado 81" d="M128.7,33.52s-.519-23.538-17.567-21.051S91.267,36.023,91.267,36.023h11.766c.556-5.5,5.473-12.592,9.451-9.944s2.155,9.347,2.321,13.194c-11.221.665-23.772,5.712-25.319,18.47a14.539,14.539,0,0,0,12.8,16.061,20.558,20.558,0,0,0,9.985-1.636c.322-.13,4.793-1.74,4.71-2.171l.306,4.154,10.276,1C127.376,65.507,128.7,33.52,128.7,33.52ZM109.68,49.451c.395-.634,1.869-.992,2.3-.41a3.547,3.547,0,0,1,1.8,2.077,2.077,2.077,0,0,1-1.085,2.4,1.007,1.007,0,0,1-.441.093,1.376,1.376,0,0,1-.405-.109,4.154,4.154,0,0,1-2.077-1.942,2.171,2.171,0,0,1-.088-2.108Zm-7.41,12.364a1.111,1.111,0,0,1-.2.41,2.077,2.077,0,0,1-2.6.452,3.531,3.531,0,0,1-1.558-2.259c-.457-.556.254-1.9.966-2.119a2.15,2.15,0,0,1,2,.582,4.154,4.154,0,0,1,1.36,2.518,1.241,1.241,0,0,1,.026.415Zm.421-6.47a1.038,1.038,0,0,1-.2.41,2.077,2.077,0,0,1-2.6.452,3.536,3.536,0,0,1-1.558-2.259c-.457-.556.26-1.9.966-2.119a2.15,2.15,0,0,1,2,.582,4.154,4.154,0,0,1,1.36,2.518,1.236,1.236,0,0,1,.026.415Zm1.2-7.119a2.15,2.15,0,0,1,2,.582,4.123,4.123,0,0,1,1.36,2.518,1.236,1.236,0,0,1,0,.415,1.09,1.09,0,0,1-.2.405,2.077,2.077,0,0,1-2.6.452,3.515,3.515,0,0,1-1.558-2.254c-.457-.556.254-1.9.966-2.119ZM114.327,59.39a16.1,16.1,0,0,1-6.174,5.265,6.454,6.454,0,0,1-2.731.753,1.845,1.845,0,0,1-1.906-1.22c-.312-1.246.992-2.9.561-4.087-.093-.254-.26-.462-.369-.7-.519-1.039-.093-2.269,1.09-3.292,1.039-.883,2.4-1.849,3.521-1.558.883.218,1.163,1.075,2.145,1.039a9.668,9.668,0,0,0,2.394-.7,1.791,1.791,0,0,1,2.363,1.527A4.185,4.185,0,0,1,114.327,59.39Z" transform="translate(-43.366 -6.311)" fill="#c3ff9f" stroke="#006837" stroke-miterlimit="10" stroke-width="1.5"/>
    </g>
    <g id="Capa_6" data-name="Capa 6" transform="translate(3.114 7.801)">
      <path id="Trazado_82" data-name="Trazado 82" d="M136.379,18.349a9.554,9.554,0,0,1,8,8.827c.052,1,1.61,1,1.558,0a11.1,11.1,0,0,0-9.144-10.328C135.813,16.682,135.393,18.183,136.379,18.349Z" transform="translate(-68.044 -15.519)" fill="#fff"/>
      <path id="Trazado_83" data-name="Trazado 83" d="M154.623,46.1a15.334,15.334,0,0,1-.125,3.962c-.161.981,1.34,1.4,1.5.41a16.886,16.886,0,0,0,.182-4.372C156.093,45.115,154.53,45.1,154.623,46.1Z" transform="translate(-77.02 -29.231)" fill="#fff"/>
      <path id="Trazado_84" data-name="Trazado 84" d="M95.967,108.219c1.319,4.5,5.566,6.475,9.638,7.981.945.348,1.35-1.153.415-1.5-3.521-1.3-7.4-2.975-8.552-6.9A.779.779,0,0,0,95.967,108.219Z" transform="translate(-48.87 -58.988)" fill="#fff"/>
      <path id="Trazado_85" data-name="Trazado 85" d="M187.158,51.1a293.662,293.662,0,0,0,.208,29.858c.057,1,1.615,1,1.558,0a293.7,293.7,0,0,1-.208-29.858C188.763,50.094,187.2,50.1,187.158,51.1Z" transform="translate(-92.59 -31.629)" fill="#fff"/>
      <path id="Trazado_86" data-name="Trazado 86" d="M188.4,38.868l.758-2.077a.779.779,0,0,0-.519-.955.794.794,0,0,0-.955.519l-.763,2.077a.779.779,0,0,0,.519.955.794.794,0,0,0,.961-.519Z" transform="translate(-92.599 -24.641)" fill="#fff"/>
      <path id="Trazado_87" data-name="Trazado 87" d="M221.765,88.652a28.85,28.85,0,0,0,5.026-10.842c.228-.976-1.272-1.392-1.5-.415a27.707,27.707,0,0,1-4.871,10.468c-.6.8.748,1.584,1.345.789Z" transform="translate(-108.643 -44.365)" fill="#fff"/>
      <path id="Trazado_88" data-name="Trazado 88" d="M234.408,63.245a10.167,10.167,0,0,0,.473-4.632c-.13-.981-1.688-1-1.558,0a9.149,9.149,0,0,1-.415,4.216c-.327.95,1.179,1.36,1.5.415Z" transform="translate(-114.697 -35.247)" fill="#fff"/>
      <path id="Trazado_89" data-name="Trazado 89" d="M388.728,45.676a303.352,303.352,0,0,0,.213,30.886c.057,1,1.62,1,1.558,0a303.341,303.341,0,0,1-.213-30.886C390.327,44.674,388.769,44.679,388.728,45.676Z" transform="translate(-189.487 -29.024)" fill="#fff"/>
      <path id="Trazado_90" data-name="Trazado 90" d="M389.879,33.016l.789-2.155a.779.779,0,0,0-.545-.955.794.794,0,0,0-.955.519l-.789,2.155a.779.779,0,1,0,1.5.415Z" transform="translate(-189.443 -21.79)" fill="#fff"/>
      <path id="Trazado_91" data-name="Trazado 91" d="M424.42,84.511A29.81,29.81,0,0,0,429.613,73.3c.228-.976-1.272-1.392-1.5-.415a28.7,28.7,0,0,1-5.042,10.837c-.6.8.753,1.558,1.345.789Z" transform="translate(-206.065 -42.197)" fill="#fff"/>
      <path id="Trazado_92" data-name="Trazado 92" d="M437.5,58.234a10.479,10.479,0,0,0,.488-4.788c-.125-.976-1.688-.992-1.558,0A9.467,9.467,0,0,1,436,57.819C435.676,58.774,437.177,59.179,437.5,58.234Z" transform="translate(-212.331 -32.765)" fill="#fff"/>
      <path id="Trazado_93" data-name="Trazado 93" d="M256.008,58.764a293.572,293.572,0,0,0,.208,29.852c.057,1,1.615,1,1.558,0a293.561,293.561,0,0,1-.208-29.852c.047-1-1.516-1-1.558,0Z" transform="translate(-125.689 -35.315)" fill="#fff"/>
      <path id="Trazado_94" data-name="Trazado 94" d="M258.219,46.535l.763-2.077a.784.784,0,0,0-.545-.961.794.794,0,0,0-.955.545l-.763,2.077a.779.779,0,1,0,1.5.415Z" transform="translate(-126.149 -28.325)" fill="#fff"/>
      <path id="Trazado_95" data-name="Trazado 95" d="M290.615,96.312a28.778,28.778,0,0,0,5.026-10.842c.228-.976-1.272-1.392-1.5-.415a27.812,27.812,0,0,1-4.871,10.474c-.6.8.748,1.558,1.345.784Z" transform="translate(-141.742 -48.047)" fill="#fff"/>
      <path id="Trazado_96" data-name="Trazado 96" d="M303.258,70.931a10.2,10.2,0,0,0,.473-4.616c-.13-.981-1.688-.992-1.558,0a9.18,9.18,0,0,1-.415,4.222c-.327.95,1.179,1.36,1.5.415Z" transform="translate(-147.796 -38.95)" fill="#fff"/>
      <path id="Trazado_97" data-name="Trazado 97" d="M96.863,94.4a3.983,3.983,0,0,1,.789-2.835c.613-.779-.483-1.89-1.1-1.1A5.546,5.546,0,0,0,95.306,94.4C95.384,95.387,96.941,95.392,96.863,94.4Z" transform="translate(-48.562 -50.783)" fill="#fff"/>
      <path id="Trazado_98" data-name="Trazado 98" d="M5.819,47.594,5.3,69.144a.779.779,0,0,0,1.558,0l.519-21.549A.779.779,0,0,0,5.819,47.594Z" transform="translate(-5.3 -29.945)" fill="#fff"/>
      <path id="Trazado_99" data-name="Trazado 99" d="M8.238,27.576l.254-1.817a.8.8,0,0,0-.545-.955.779.779,0,0,0-.955.519l-.254,1.823a.8.8,0,0,0,.519.955.784.784,0,0,0,.955-.519Z" transform="translate(-5.979 -19.335)" fill="#fff"/>
      <path id="Trazado_100" data-name="Trazado 100" d="M67.808,116.9l.291-2.331a.779.779,0,0,0-.779-.779.8.8,0,0,0-.779.779L66.25,116.9a.779.779,0,0,0,.779.779A.794.794,0,0,0,67.808,116.9Z" transform="translate(-34.601 -62.129)" fill="#fff"/>
      <path id="Trazado_101" data-name="Trazado 101" d="M67.831,86.049q.286-9.482-.1-18.953c-.042-1-1.6-1-1.558,0q.4,9.477.1,18.953C66.242,87.051,67.8,87.051,67.831,86.049Z" transform="translate(-34.562 -39.321)" fill="#fff"/>
      <path id="Trazado_102" data-name="Trazado 102" d="M328.99,77.765a35.777,35.777,0,0,0,4.6,12.712.779.779,0,0,0,1.345-.784,34.723,34.723,0,0,1-4.445-12.343C330.334,76.362,328.834,76.783,328.99,77.765Z" transform="translate(-160.904 -44.34)" fill="#fff"/>
      <path id="Trazado_103" data-name="Trazado 103" d="M325.26,60.8l.55,3.116c.171.987,1.672.571,1.5-.41l-.519-3.116c-.177-.987-1.677-.571-1.506.41Z" transform="translate(-159.117 -36.185)" fill="#fff"/>
      <path id="Trazado_104" data-name="Trazado 104" d="M344.43,141.142l.483-1.828a.779.779,0,0,0-1.5-.41l-.483,1.823a.779.779,0,0,0,1.5.415Z" transform="translate(-167.6 -73.945)" fill="#fff"/>
      <path id="Trazado_105" data-name="Trazado 105" d="M347.942,114a61.7,61.7,0,0,1,2.243-10.707.779.779,0,0,0-1.5-.415,64.493,64.493,0,0,0-2.3,11.123C346.265,114.988,347.828,114.983,347.942,114Z" transform="translate(-169.269 -56.618)" fill="#fff"/>
      <path id="Trazado_106" data-name="Trazado 106" d="M454.828,98.064c-.119,5.774.519,11.9,5.141,15.905.753.654,1.864-.447,1.1-1.1-4.331-3.739-4.8-9.43-4.673-14.8a.779.779,0,0,0-1.558,0Z" transform="translate(-221.399 -54.208)" fill="#fff"/>
      <path id="Trazado_107" data-name="Trazado 107" d="M473.23,134.7a7.9,7.9,0,0,0,3.754,1.189c1,.062,1-1.5,0-1.558a6.231,6.231,0,0,1-2.97-.976C473.162,132.832,472.378,134.166,473.23,134.7Z" transform="translate(-230.075 -71.476)" fill="#fff"/>
      <path id="Trazado_108" data-name="Trazado 108" d="M502.1,90.895a3.188,3.188,0,0,0,3.147-2.6.794.794,0,0,0-.545-.955.779.779,0,0,0-.955.519,1.651,1.651,0,0,1-1.646,1.459.779.779,0,0,0,0,1.558Z" transform="translate(-243.771 -49.401)" fill="#fff"/>
      <path id="Trazado_109" data-name="Trazado 109" d="M505.657,66.26a29.224,29.224,0,0,0-2.788-13.143c-.426-.909-1.771-.119-1.345.784a27.422,27.422,0,0,1,2.6,12.358.779.779,0,0,0,1.558,0Z" transform="translate(-243.814 -32.768)" fill="#fff"/>
      <path id="Trazado_110" data-name="Trazado 110" d="M567.36,96.776q1.407,9.1,2.363,18.252c.1.987,1.662,1,1.558,0q-.971-9.347-2.415-18.662C568.71,95.374,567.21,95.794,567.36,96.776Z" transform="translate(-275.498 -53.48)" fill="#fff"/>
      <path id="Trazado_111" data-name="Trazado 111" d="M567.4,80.254a15.624,15.624,0,0,1-.582-4.185.779.779,0,1,0-1.558,0,17.462,17.462,0,0,0,.633,4.6.784.784,0,0,0,1.506-.415Z" transform="translate(-274.494 -43.621)" fill="#fff"/>
      <path id="Trazado_112" data-name="Trazado 112" d="M585.792,51.127a3.152,3.152,0,0,0,2.352-3.058.779.779,0,0,0-1.558,0,1.558,1.558,0,0,1-1.21,1.558.782.782,0,0,0,.415,1.506Z" transform="translate(-283.898 -30.16)" fill="#fff"/>
      <path id="Trazado_113" data-name="Trazado 113" d="M557.373,15.277a38.113,38.113,0,0,1,.722,9.923c-.057,1,1.5,1,1.558,0a39.718,39.718,0,0,0-.779-10.339C558.671,13.88,557.17,14.3,557.373,15.277Z" transform="translate(-270.693 -14.301)" fill="#fff"/>
      <path id="Trazado_114" data-name="Trazado 114" d="M628.873,113.89a11.2,11.2,0,0,0,14.742-6.569c.364-.935-1.142-1.34-1.5-.415a9.652,9.652,0,0,1-12.831,5.483c-.935-.363-1.34,1.142-.41,1.5Z" transform="translate(-304.822 -58.569)" fill="#fff"/>
      <path id="Trazado_115" data-name="Trazado 115" d="M661.234,95.426a7.27,7.27,0,0,0,.405-6.06c-.353-.924-1.859-.519-1.5.415a5.712,5.712,0,0,1-.229,4.855c-.467.888.878,1.677,1.35.789Z" transform="translate(-319.949 -50.137)" fill="#fff"/>
      <path id="Trazado_116" data-name="Trazado 116" d="M620.259,44.795a10.344,10.344,0,0,0,5.338,7.467c.883.473,1.667-.867.784-1.345a8.89,8.89,0,0,1-4.621-6.538C621.6,43.393,620.1,43.813,620.259,44.795Z" transform="translate(-300.928 -28.49)" fill="#fff"/>
      <path id="Trazado_117" data-name="Trazado 117" d="M622.781,34.759a2.077,2.077,0,0,1,1.039-.992.8.8,0,0,0,.545-.955.779.779,0,0,0-.955-.519,3.635,3.635,0,0,0-1.989,1.7.78.78,0,0,0,1.345.789Z" transform="translate(-301.44 -22.936)" fill="#fff"/>
    </g>
  </g>
</svg>
