<svg xmlns="http://www.w3.org/2000/svg" width="870.511" height="212.898" viewBox="0 0 870.511 212.898">
  <g id="Capa_2" data-name="Capa 2" transform="translate(0.008 0.003)">
    <g id="sombra" transform="translate(7.196 7.506)">
      <path id="Trazado_2" data-name="Trazado 2" d="M8.365,14.182s-5.876,98.545,0,160.02H38.194V109.081l34.352-1.8v63.73l28.94.915S96.537,37.233,103.766,7.4L72.069,6l-.876,75.481L36.841,83.31l1.4-68.291Z" transform="translate(-5.753 -6)" fill="#006837" stroke="#006837" stroke-miterlimit="10" stroke-width="2"/>
      <path id="Trazado_3" data-name="Trazado 3" d="M323.47,44.137l25.77,1.714s-3.015,35.228,9.02,70.443c0,0,13.31-79.024,20.616-83.753l20.616,13.31s-29.21,86.768-36.516,147.753h-26.2s7.28-34.48,13.607-51.231C350.387,142.372,326.9,121.447,323.47,44.137Z" transform="translate(85.91 1.657)" fill="#006837" stroke="#006837" stroke-miterlimit="10" stroke-width="2"/>
      <path id="Trazado_4" data-name="Trazado 4" d="M262.7,69.907c-2.577-21.9-14.6-31.349-29.636-30.061s-18.9,15.462-18.9,15.462V34.254l-22.33-1.714c-8.156,16.751-3,159.775-3,159.775l24.907,2.577-.425-53.692C249.815,158.814,265.277,91.811,262.7,69.907ZM236,94.865c-7.551,41.31-23.554,25.577-23.554,25.577V84.364c6.945-22.613,13.594-23.928,13.594-23.928S243.553,53.568,236,94.865Z" transform="translate(46.602 1.657)" fill="#006837" stroke="#006837" stroke-miterlimit="10" stroke-width="2"/>
      <path id="Trazado_5" data-name="Trazado 5" d="M332.16,75.907c-2.577-21.9-14.6-31.349-29.636-30.061s-18.9,15.462-18.9,15.462V40.254l-22.33-1.714c-8.156,16.751-3,159.775-3,159.775l24.907,2.577-.425-53.692C319.275,164.814,334.737,97.811,332.16,75.907Zm-25.487,25.6c-7.551,41.31-23.554,25.577-23.554,25.577V91.008c6.945-22.613,13.594-23.928,13.594-23.928S314.224,60.213,306.673,101.509Z" transform="translate(66.642 3.388)" fill="#006837" stroke="#006837" stroke-miterlimit="10" stroke-width="2"/>
      <path id="Trazado_6" data-name="Trazado 6" d="M467.713,59.338c-2.706-23.039-15.385-32.973-31.156-31.607s-19.882,16.261-19.882,16.261V21.855L393.186,20c-8.581,17.614-3.157,168.021-3.157,168.021l26.2,2.706-.451-56.462C454.171,152.845,470.432,82.377,467.713,59.338Zm-26.788,26.93C433,129.7,416.147,113.159,416.147,113.159V75.238c7.306-23.786,14.277-25.165,14.277-25.165S448.862,42.832,440.925,86.268Z" transform="translate(104.625 -1.961)" fill="#006837" stroke="#006837" stroke-miterlimit="10" stroke-width="2"/>
      <path id="Trazado_7" data-name="Trazado 7" d="M544.438,39.486a4.071,4.071,0,0,0-.657-3.286,4.021,4.021,0,0,0-3.234-.722,67.312,67.312,0,0,0-30.267,10.05l1.289,1.057a30.343,30.343,0,0,0-3.969-.219,50.381,50.381,0,0,0-14.174,2.1l.528-.4a67.105,67.105,0,0,0-29.636-11.674,4.02,4.02,0,0,0-3.286.541,4.02,4.02,0,0,0-.825,3.234,116.856,116.856,0,0,0,4.986,29.03l3.6-2.641A67.467,67.467,0,0,0,458.017,90.82s-17.189,61.629,8.581,83.109,56.694,9.445,74.733-20.616l-20.178-14.174s-28.347,53.692-36.941-3.866l58.846-11.6s2.745-34.906-7.924-57.8l2.822,2.319a116.223,116.223,0,0,0,6.481-28.708Zm-57.983,73.767s-.064-21.08,12.808-37.277c15.758-19.856,15.952,31.607,15.952,31.607Z" transform="translate(123.108 2.481)" fill="#006837"/>
      <path id="Trazado_8" data-name="Trazado 8" d="M549.174,40.376c.18-17.588-32.934-1.559-39.944,2.706-1.958,1.185-2.77,4.445-.786,6.069l1.289,1.057,2.732-6.6a54.117,54.117,0,0,0-19.225,2.01l2.976,7.074.541-.4a3.93,3.93,0,0,0,0-6.674A74.463,74.463,0,0,0,478.718,36.5c-4.793-1.624-12.885-4.832-17.846-2.4s-3.672,8.581-3.234,13.091a128.217,128.217,0,0,0,4.69,23.928c.644,2.178,3.595,3.866,5.682,2.306l3.582-2.577-5.283-5.283c-12.318,17.872-16.248,42.624-16.867,63.923-.387,13.671.953,28.979,8.736,40.665,8.62,12.885,25.487,20.616,40.884,19.328,20.358-1.778,36.207-16.609,46.464-33.269a3.969,3.969,0,0,0-1.379-5.3l-20.191-14.174a3.866,3.866,0,0,0-5.283,1.392,63.574,63.574,0,0,1-12.4,16.944c-2.345,2.152-5.824,5.154-9.084,3.234-6.327-3.595-7.435-16.983-8.4-23.193l-2.693,4.755,58.833-11.6a3.93,3.93,0,0,0,2.848-3.724c1.508-19.817-.283-41.5-8.453-59.761l-6.069,4.69,2.822,2.319a3.93,3.93,0,0,0,6.442-1.7,129.986,129.986,0,0,0,6.7-29.739c.528-4.948-7.2-4.909-7.731,0a121.515,121.515,0,0,1-6.442,27.677l6.442-1.7L538.66,64.02a3.866,3.866,0,0,0-6.017,4.69c7.576,16.957,8.788,37.5,7.4,55.857l2.835-3.724-58.846,11.6c-2.2.438-3,2.822-2.693,4.755,1.907,12.1,8.246,37.534,25.77,26.968,8-4.845,13.967-14.07,18.284-22.175l-5.3,1.379,20.191,14.174-1.392-5.283c-8.594,13.955-21.7,27.059-38.655,29.3-14.174,1.817-30.022-5.45-36.954-18.142-10.45-19.134-6.443-45.7-1.752-66.01,2.306-10.037,5.618-19.4,11.6-28,2.139-3.092-2.178-7.576-5.283-5.3l-3.595,2.577,5.682,2.306a124.985,124.985,0,0,1-3.415-14.354Q465.769,50.3,465.4,45.9c-.142-1.624-.245-3.26-.322-4.909l2.384.464c8.594-.064,18.761,6.12,25.577,10.772V45.62l-.541.4c-3.337,2.448-1.52,8.324,2.989,7.061a47.675,47.675,0,0,1,17.163-1.739c3.221.283,5.27-4.523,2.744-6.6L514.1,43.687l-.786,6.069a66.116,66.116,0,0,1,14.625-6.778c1.843-.58,13.723-3.247,13.723-2.577C541.391,45.349,549.122,45.349,549.174,40.376Z" transform="translate(122.237 1.591)" fill="#006837"/>
      <path id="Trazado_9" data-name="Trazado 9" d="M483.545,106.063a60.934,60.934,0,0,1,4.7-22.265c1.52-3.788,5.386-13.658,9.664-15.114,1.624-.541,1.289-.451,2.4,1.43,4.639,8.259,4.239,21.016,4.278,30.28l2.835-3.737-28.8,5.682c-4.871.953-2.809,8.414,2.062,7.448l28.863-5.669a3.865,3.865,0,0,0,2.835-3.724,144.58,144.58,0,0,0-1.173-17.665c-.838-6.623-1.727-16.841-7.873-20.99-8.672-5.85-16.635,7.86-19.688,13.787a68.884,68.884,0,0,0-7.731,30.538C475.788,111.037,483.519,111.05,483.545,106.063Z" transform="translate(129.871 9.671)" fill="#006837"/>
      <path id="Trazado_10" data-name="Trazado 10" d="M558.109,16.041s-4.471-2.577,1.971,46.154L529.8,67.35l5.154,23.193,27.7-3.866s2.693,42.74,12.241,99.859l30.924,2.577s-10.308-44.26-15.462-106.3l34.145-3.866,1.289-24.482-39.3,3.866c-4.677-23.193-2.4-48.19-2.4-48.19Z" transform="translate(145.438 -4.806)" fill="#006837" stroke="#006837" stroke-miterlimit="10" stroke-width="2"/>
      <path id="Trazado_11" data-name="Trazado 11" d="M607.338,128.9l17.5-15.088s17.73,34.3,36.877,25.049c15.681-7.564,8.195-33.269-4.561-42.25-5.592-3.943-10.862-9.02-16.39-13.014-12.614-9.239-20.049-23.3-14.444-38.243,4.11-10.939,13.7-15.462,24.765-16.119,23.193-1.289,32.458,18.993,32.458,18.993l-11.6,14.934s-7.035-12.434-14.869-15.179c-9.483-3.286-16.583,14.741,9.741,28.128,25.77,13.091,30.525,33.566,26.389,54.8-3.144,16.184-18.993,30.563-34.7,34.12-11.12,2.577-22.923-1.044-31.9-7.731a51.85,51.85,0,0,1-11.751-12.5,62.529,62.529,0,0,1-4.3-7.486C610.069,136.257,606.706,129.518,607.338,128.9Z" transform="translate(167.785 0.686)" fill="#006837" stroke="#006837" stroke-miterlimit="10" stroke-width="2"/>
      <path id="Trazado_12" data-name="Trazado 12" d="M191.93,70.228s-1.289-58.4-43.59-52.236S99.041,76.4,99.041,76.4h29.2c1.379-13.658,13.581-31.259,23.451-24.675s5.347,23.193,5.76,32.728C129.6,86.1,98.462,98.627,94.622,130.285a36.078,36.078,0,0,0,31.71,39.892c8.427.954,16.983-.876,24.778-4.046.8-.335,11.893-4.329,11.687-5.386l.76,10.308,25.5,2.461C188.644,149.561,191.93,70.228,191.93,70.228Zm-47.2,39.531c.979-1.572,4.639-2.448,5.7-1.018A8.826,8.826,0,0,1,154.9,113.9a5.154,5.154,0,0,1-2.693,5.953,2.487,2.487,0,0,1-1.1.219,3.067,3.067,0,0,1-1.005-.271,10.308,10.308,0,0,1-5.154-4.819,5.386,5.386,0,0,1-.219-5.218Zm-18.387,30.679a2.667,2.667,0,0,1-.49,1.018,5.154,5.154,0,0,1-6.443,1.121,8.723,8.723,0,0,1-3.866-5.592c-1.134-1.379.631-4.716,2.4-5.27a5.412,5.412,0,0,1,4.961,1.443,10.308,10.308,0,0,1,3.376,6.262,3,3,0,0,1,.064,1.018Zm.979-16.055a2.577,2.577,0,0,1-.49,1.018,5.154,5.154,0,0,1-6.443,1.121,8.775,8.775,0,0,1-3.866-5.605c-1.134-1.366.644-4.7,2.4-5.257a5.373,5.373,0,0,1,4.961,1.443,10.308,10.308,0,0,1,3.376,6.249,3.08,3.08,0,0,1,.129,1.031Zm2.989-17.665a5.334,5.334,0,0,1,4.961,1.443,10.231,10.231,0,0,1,3.376,6.249,3.067,3.067,0,0,1,0,1.031,2.86,2.86,0,0,1-.49,1.018,5.154,5.154,0,0,1-6.443,1.108,8.7,8.7,0,0,1-3.866-5.592C126.783,110.6,128.548,107.273,130.314,106.719Zm25.951,27.742a39.725,39.725,0,0,1-15.32,13.065,15.836,15.836,0,0,1-6.778,1.868c-2.216,0-4.239-1.082-4.729-3.028-.773-3.092,2.461-7.177,1.392-10.141-.232-.618-.644-1.147-.915-1.739-1.289-2.577-.232-5.631,2.706-8.169,2.577-2.19,5.953-4.587,8.736-3.866,2.19.554,2.886,2.667,5.322,2.577,2.126-.116,3.775-1.031,5.94-1.714a4.432,4.432,0,0,1,5.863,3.788A10.308,10.308,0,0,1,156.264,134.46Z" transform="translate(19.819 -2.672)" fill="#006837" stroke="#006837" stroke-miterlimit="10" stroke-width="2"/>
    </g>
    <g id="Capa_4" data-name="Capa 4" transform="translate(0.753 0.78)">
      <path id="Trazado_13" data-name="Trazado 13" d="M3.365,8.923s-5.876,98.545,0,160.02H33.194v-65.1l34.352-1.8v63.73l28.94.9S91.537,31.988,98.766,2.146L67.069.78l-.876,75.494-34.352,1.8L33.284,9.812Z" transform="translate(-0.753 -0.78)" fill="#c3ff9f" stroke="#006837" stroke-miterlimit="10" stroke-width="1.5"/>
      <path id="Trazado_14" data-name="Trazado 14" d="M318.47,38.887,344.24,40.6s-3.015,35.215,9.02,70.443c0,0,13.31-79.037,20.616-83.753L394.492,40.6s-29.21,86.82-36.516,147.753h-26.2s7.28-34.493,13.607-51.244C345.387,137.109,321.9,116.2,318.47,38.887Z" transform="translate(90.91 6.868)" fill="#c3ff9f" stroke="#006837" stroke-miterlimit="10" stroke-width="1.5"/>
      <path id="Trazado_15" data-name="Trazado 15" d="M257.7,64.657c-2.577-21.9-14.6-31.362-29.636-30.074s-18.9,15.462-18.9,15.462V29l-22.33-1.714c-8.156,16.751-3,159.775-3,159.775l24.907,2.577-.425-53.692C244.815,153.564,260.277,86.561,257.7,64.657ZM231,89.615c-7.551,41.31-23.554,25.564-23.554,25.564V79.1c6.945-22.549,13.594-23.837,13.594-23.837S238.553,48.318,231,89.615Z" transform="translate(51.602 6.868)" fill="#c3ff9f" stroke="#006837" stroke-miterlimit="10" stroke-width="1.5"/>
      <path id="Trazado_16" data-name="Trazado 16" d="M327.16,70.657c-2.577-21.9-14.6-31.362-29.636-30.074s-18.9,15.462-18.9,15.462V35l-22.33-1.714c-8.156,16.751-3,159.775-3,159.775l24.907,2.577-.425-53.692C314.275,159.564,329.737,92.561,327.16,70.657Zm-25.487,25.6c-7.551,41.31-23.554,25.564-23.554,25.564V85.745c6.945-22.613,13.594-23.928,13.594-23.928S309.224,54.963,301.673,96.259Z" transform="translate(71.642 8.599)" fill="#c3ff9f" stroke="#006837" stroke-miterlimit="10" stroke-width="1.5"/>
      <path id="Trazado_17" data-name="Trazado 17" d="M462.713,54.079c-2.706-23.039-15.385-32.973-31.156-31.62S411.675,38.72,411.675,38.72V16.584l-23.49-1.8C379.6,32.394,385.029,182.8,385.029,182.8l26.221,2.719-.451-56.462C449.171,147.574,465.432,77.118,462.713,54.079Zm-26.788,26.93C428,124.445,411.147,107.9,411.147,107.9V69.98c7.306-23.786,14.277-25.165,14.277-25.165S443.862,37.574,435.925,81.009Z" transform="translate(109.625 3.259)" fill="#c3ff9f" stroke="#006837" stroke-miterlimit="10" stroke-width="1.5"/>
      <path id="Trazado_18" data-name="Trazado 18" d="M539.438,34.237a4.072,4.072,0,0,0-.657-3.286,3.969,3.969,0,0,0-3.234-.722,67.312,67.312,0,0,0-30.267,10.037l1.288,1.057A30.342,30.342,0,0,0,502.6,41.1a50.87,50.87,0,0,0-14.174,2.087l.528-.387a67.273,67.273,0,0,0-29.636-11.687,4.072,4.072,0,0,0-3.286.554,4.02,4.02,0,0,0-.825,3.234,116.952,116.952,0,0,0,4.987,29.03l3.6-2.641a67.465,67.465,0,0,0-10.772,24.263s-17.189,61.629,8.581,83.109,56.694,9.445,74.733-20.616l-20.178-14.174s-28.347,53.692-36.942-3.866l58.846-11.6S540.8,83.51,530.134,60.6l2.822,2.332a116.222,116.222,0,0,0,6.481-28.7ZM481.455,108s-.064-21.08,12.808-37.277c15.758-19.856,15.952,31.594,15.952,31.594Z" transform="translate(128.108 7.691)" fill="#c3ff9f"/>
      <path id="Trazado_19" data-name="Trazado 19" d="M540.631,34.492c.129-13.065-30.447,2.074-35.614,5.154a.979.979,0,0,0-.193,1.52l1.289,1.057.683-1.649a51.334,51.334,0,0,0-18.451,1.959l.747,1.765.528-.387a.979.979,0,0,0,0-1.675,71.025,71.025,0,0,0-17.382-8.826c-3.685-1.289-12.576-5.038-16.312-2.41-2.886,2.049-1.366,7.486-1.1,10.308A124.09,124.09,0,0,0,459.417,64.5a.966.966,0,0,0,1.417.58l3.595-2.577-1.289-1.289c-12.048,17.485-15.862,41.632-16.467,62.467-.374,13.181.825,27.922,8.337,39.2,8.079,12.112,24.018,19.2,38.385,17.9,19.328-1.727,34.274-16.081,43.964-31.826a.979.979,0,0,0-.348-1.289L516.82,133.488a.954.954,0,0,0-1.288.348c-4.11,7.731-18.529,31.259-28.205,18.5a28.577,28.577,0,0,1-4.085-8.8c-.515-1.662-.953-3.35-1.353-5.051-.309-1.289-1.894-5.579-1.675-6.571s-.464-.09,1.121-.85a20.81,20.81,0,0,1,4.471-.876l29.558-5.837,23.193-4.561a1,1,0,0,0,.709-.928c1.456-19.328-.116-40.536-8.053-58.292l-1.52,1.16,2.822,2.332a.992.992,0,0,0,1.624-.425,126.935,126.935,0,0,0,6.6-28.966c.129-1.289-1.8-1.289-1.933,0a124.054,124.054,0,0,1-6.649,28.27l1.611-.425-2.822-2.332a.979.979,0,0,0-1.52,1.173c6.8,15.217,8.285,32.548,8.092,49.053,0,2-.219,4.033-.167,6.03s-.76,2.113.541,1.288c-1.662,1.005-5.038.992-6.919,1.366l-51.888,10.231a.979.979,0,0,0-.67,1.185c1.289,7.886,2.835,22.149,11.249,26.376,4.909,2.474,9.96-.5,13.671-3.775a63.821,63.821,0,0,0,11.8-15.063,11.6,11.6,0,0,0,1.456-2.5c.438-1.688.953.18-.734-.554,2.964,1.288,5.85,4.11,8.466,5.953l6.107,4.278c1.069.747,3.866,2.01,4.5,3.17.8,1.456.386.593-1.482,2.86-3.247,3.956-5.966,8.195-9.625,11.841-10.836,10.823-25.86,18.039-41.425,15.024a39.815,39.815,0,0,1-30.254-25.5c-3.866-11-4.085-23.116-3.3-34.622,1.289-18.915,4.987-40.021,15.926-55.883.528-.773-.541-1.894-1.289-1.289s-1.881,1.817-2.654,1.959c-.966.915-1.031.541-.206-1.108-.451-1.572-.863-3.157-1.289-4.755-1.353-5.721-3.866-13.452-2.886-19.186q-1.379-4.7,4.871-4.987,2.126.348,4.213.85,3.131.734,6.185,1.765a69.916,69.916,0,0,1,16.918,8.646V42.339l-.528.4a.966.966,0,0,0,.747,1.765,49.633,49.633,0,0,1,17.936-1.843A.979.979,0,0,0,507.465,41c-1.018-.838,2.835-2.036,4.136-2.68a63.939,63.939,0,0,1,8.7-3.582c3-1.005,18.464-6.443,18.4-.142a.968.968,0,0,0,1.933-.1Z" transform="translate(127.881 7.436)" fill="#006837"/>
      <path id="Trazado_20" data-name="Trazado 20" d="M475.017,100.165c0-12.627,4.613-30.666,14.676-38.952,8.942-7.37,10.823,13.581,11.352,18.67.4,3.866.644,7.873.76,11.816a9.558,9.558,0,0,1,0,2.577c.5-1.482.167-.387-1.533-.335-4.922.129-10.385,2.036-15.2,2.989l-11.326,2.242c-1.224.232-.709,2.1.515,1.855l28.772-5.669a.966.966,0,0,0,.709-.941,144.3,144.3,0,0,0-1.173-17.653c-.7-5.386-1.366-15.05-6.443-18.49-6.816-4.613-13.607,8.633-15.733,12.743a65.713,65.713,0,0,0-7.37,29.082,1,1,0,1,0,2,.064Z" transform="translate(135.499 15.53)" fill="#006837"/>
      <path id="Trazado_21" data-name="Trazado 21" d="M553.109,10.794s-4.471-2.577,1.971,46.154L524.8,62.1,529.954,85.3l27.7-3.866s2.693,42.74,12.241,99.859l30.924,2.577s-10.308-44.26-15.462-106.3L619.505,73.7l1.289-24.482-39.3,3.866c-4.677-23.193-2.4-48.2-2.4-48.2Z" transform="translate(150.438 0.403)" fill="#c3ff9f" stroke="#006837" stroke-miterlimit="10" stroke-width="1.5"/>
      <path id="Trazado_22" data-name="Trazado 22" d="M602.338,123.639l17.5-15.076s17.73,34.3,36.877,25.049c15.681-7.576,8.195-33.269-4.561-42.25-5.592-3.943-10.862-9.02-16.39-13.014-12.615-9.226-20.049-23.309-14.444-38.243,4.11-10.939,13.7-15.462,24.765-16.132,23.193-1.289,32.458,19.005,32.458,19.005l-11.6,14.934s-7.035-12.434-14.869-15.179c-9.483-3.247-16.583,14.792,9.741,28.128,25.77,13.078,30.525,33.566,26.389,54.8-3.144,16.171-18.993,30.563-34.7,34.12-11.12,2.577-22.922-1.044-31.9-7.731a51.668,51.668,0,0,1-11.751-12.511,60.543,60.543,0,0,1-4.3-7.486C605.069,130.971,601.706,124.258,602.338,123.639Z" transform="translate(172.785 5.894)" fill="#c3ff9f" stroke="#006837" stroke-miterlimit="10" stroke-width="1.5"/>
      <path id="Trazado_23" data-name="Trazado 23" d="M186.929,64.978S185.64,6.57,143.339,12.742s-49.3,58.447-49.3,58.447h29.2c1.379-13.658,13.581-31.246,23.451-24.675s5.347,23.193,5.76,32.741C124.6,80.9,93.46,93.429,89.621,125.087a36.078,36.078,0,0,0,31.762,39.854,51.012,51.012,0,0,0,24.778-4.059c.8-.322,11.893-4.316,11.687-5.386l.76,10.308,25.5,2.474C183.643,144.35,186.929,64.978,186.929,64.978Zm-47.2,39.531c.979-1.572,4.639-2.461,5.7-1.018a8.8,8.8,0,0,1,4.471,5.154A5.154,5.154,0,0,1,147.2,114.6a2.5,2.5,0,0,1-1.1.232,3.415,3.415,0,0,1-1.005-.271,10.308,10.308,0,0,1-5.154-4.819,5.386,5.386,0,0,1-.219-5.231Zm-18.387,30.679a2.758,2.758,0,0,1-.49,1.018,5.154,5.154,0,0,1-6.443,1.121,8.762,8.762,0,0,1-3.866-5.605c-1.134-1.379.631-4.7,2.4-5.257a5.334,5.334,0,0,1,4.961,1.443,10.308,10.308,0,0,1,3.376,6.249,3.08,3.08,0,0,1,.064,1.031Zm1.044-16.055a2.577,2.577,0,0,1-.49,1.018,5.154,5.154,0,0,1-6.443,1.121,8.775,8.775,0,0,1-3.866-5.6c-1.134-1.379.644-4.7,2.4-5.257a5.334,5.334,0,0,1,4.961,1.443,10.308,10.308,0,0,1,3.376,6.249,3.067,3.067,0,0,1,.064,1.031Zm2.989-17.665a5.334,5.334,0,0,1,4.961,1.443,10.231,10.231,0,0,1,3.376,6.249,3.067,3.067,0,0,1,0,1.031,2.706,2.706,0,0,1-.49,1.005,5.154,5.154,0,0,1-6.443,1.121,8.723,8.723,0,0,1-3.866-5.592c-1.134-1.379.631-4.716,2.4-5.257Zm25.886,27.7a39.944,39.944,0,0,1-15.32,13.065,16.016,16.016,0,0,1-6.778,1.868c-2.216,0-4.239-1.1-4.729-3.028-.773-3.092,2.461-7.19,1.392-10.141-.232-.631-.644-1.147-.915-1.739-1.289-2.577-.232-5.631,2.706-8.169,2.577-2.19,5.953-4.587,8.736-3.866,2.19.541,2.886,2.667,5.322,2.577,2.126-.116,3.775-1.044,5.94-1.727a4.445,4.445,0,0,1,5.863,3.788A10.385,10.385,0,0,1,151.263,129.172Z" transform="translate(24.82 2.539)" fill="#c3ff9f" stroke="#006837" stroke-miterlimit="10" stroke-width="1.5"/>
    </g>
    <g id="Capa_6" data-name="Capa 6" transform="translate(6.612 18.202)">
      <path id="Trazado_24" data-name="Trazado 24" d="M137.213,20.591a23.709,23.709,0,0,1,19.856,21.9c.129,2.474,3.994,2.487,3.865,0a27.535,27.535,0,0,0-22.691-25.628C135.808,16.455,134.764,20.179,137.213,20.591Z" transform="translate(32.355 -13.57)" fill="#fff"/>
      <path id="Trazado_25" data-name="Trazado 25" d="M154.826,47.2a38.051,38.051,0,0,1-.309,9.831c-.4,2.435,3.324,3.479,3.724,1.018a41.9,41.9,0,0,0,.451-10.849C158.472,44.755,154.594,44.729,154.826,47.2Z" transform="translate(37.741 -5.341)" fill="#fff"/>
      <path id="Trazado_26" data-name="Trazado 26" d="M96.02,109.645c3.273,11.171,13.813,16.068,23.915,19.8,2.345.863,3.35-2.86,1.031-3.724-8.736-3.234-18.374-7.383-21.222-17.111-.7-2.384-4.432-1.366-3.724,1.031Z" transform="translate(20.848 12.518)" fill="#fff"/>
      <path id="Trazado_27" data-name="Trazado 27" d="M187.577,52.207a728.7,728.7,0,0,0,.515,74.089c.142,2.474,4.007,2.487,3.866,0a728.786,728.786,0,0,1-.515-74.089C191.559,49.72,187.693,49.733,187.577,52.207Z" transform="translate(47.086 -3.901)" fill="#fff"/>
      <path id="Trazado_28" data-name="Trazado 28" d="M190.639,43.4l1.881-5.154a1.933,1.933,0,0,0-1.289-2.371,1.971,1.971,0,0,0-2.371,1.289l-1.894,5.154a1.933,1.933,0,0,0,1.288,2.371,1.971,1.971,0,0,0,2.384-1.289Z" transform="translate(47.091 -8.095)" fill="#fff"/>
      <path id="Trazado_29" data-name="Trazado 29" d="M223.981,106.154a71.59,71.59,0,0,0,12.473-26.9c.567-2.422-3.157-3.453-3.724-1.031A68.754,68.754,0,0,1,220.644,104.2C219.149,106.193,222.5,108.126,223.981,106.154Z" transform="translate(56.72 3.742)" fill="#fff"/>
      <path id="Trazado_30" data-name="Trazado 30" d="M236.7,71.206a25.229,25.229,0,0,0,1.173-11.493c-.322-2.435-4.188-2.474-3.866,0a22.7,22.7,0,0,1-1.031,10.463c-.812,2.358,2.925,3.376,3.724,1.031Z" transform="translate(60.353 -1.73)" fill="#fff"/>
      <path id="Trazado_31" data-name="Trazado 31" d="M389.163,46.787a752.715,752.715,0,0,0,.528,76.641c.142,2.474,4.02,2.487,3.866,0a752.728,752.728,0,0,1-.528-76.64C393.132,44.3,389.266,44.313,389.163,46.787Z" transform="translate(105.237 -5.465)" fill="#fff"/>
      <path id="Trazado_32" data-name="Trazado 32" d="M392.153,37.663l1.958-5.347a1.933,1.933,0,0,0-1.353-2.371,1.971,1.971,0,0,0-2.371,1.288l-1.959,5.347a1.933,1.933,0,1,0,3.724,1.031Z" transform="translate(105.211 -9.806)" fill="#fff"/>
      <path id="Trazado_33" data-name="Trazado 33" d="M426.644,102.559A73.972,73.972,0,0,0,439.529,74.74c.567-2.422-3.157-3.453-3.724-1.031A71.228,71.228,0,0,1,423.294,100.6c-1.495,2,1.868,3.866,3.337,1.959Z" transform="translate(115.186 2.44)" fill="#fff"/>
      <path id="Trazado_34" data-name="Trazado 34" d="M439.789,66.42A26,26,0,0,0,441,54.54c-.309-2.422-4.188-2.461-3.865,0a23.49,23.49,0,0,1-1.069,10.849c-.8,2.371,2.925,3.376,3.724,1.031Z" transform="translate(118.947 -3.22)" fill="#fff"/>
      <path id="Trazado_35" data-name="Trazado 35" d="M256.427,59.878a728.474,728.474,0,0,0,.515,74.076c.142,2.474,4.007,2.487,3.866,0a728.452,728.452,0,0,1-.515-74.076c.116-2.487-3.762-2.487-3.866,0Z" transform="translate(66.949 -1.69)" fill="#fff"/>
      <path id="Trazado_36" data-name="Trazado 36" d="M260.493,51.071l1.894-5.154a1.946,1.946,0,0,0-1.353-2.384,1.971,1.971,0,0,0-2.371,1.353l-1.894,5.154a1.933,1.933,0,1,0,3.724,1.031Z" transform="translate(67.226 -5.884)" fill="#fff"/>
      <path id="Trazado_37" data-name="Trazado 37" d="M292.831,113.814A71.409,71.409,0,0,0,305.3,86.91c.567-2.422-3.157-3.453-3.724-1.031a69.012,69.012,0,0,1-12.086,25.989c-1.495,1.984,1.855,3.866,3.337,1.946Z" transform="translate(76.584 5.952)" fill="#fff"/>
      <path id="Trazado_38" data-name="Trazado 38" d="M305.549,78.866a25.306,25.306,0,0,0,1.173-11.455c-.322-2.435-4.188-2.461-3.866,0a22.78,22.78,0,0,1-1.031,10.476c-.812,2.358,2.925,3.376,3.724,1.031Z" transform="translate(80.217 0.492)" fill="#fff"/>
      <path id="Trazado_39" data-name="Trazado 39" d="M99.194,100.627a9.883,9.883,0,0,1,1.959-7.035c1.52-1.933-1.2-4.69-2.732-2.732a13.761,13.761,0,0,0-3.092,9.767c.193,2.461,4.059,2.474,3.866,0Z" transform="translate(20.663 7.593)" fill="#fff"/>
      <path id="Trazado_40" data-name="Trazado 40" d="M6.589,48.708,5.3,102.181c0,2.487,3.8,2.487,3.866,0l1.289-53.473C10.454,46.221,6.589,46.221,6.589,48.708Z" transform="translate(-5.3 -4.912)" fill="#fff"/>
      <path id="Trazado_41" data-name="Trazado 41" d="M10.5,31.727l.631-4.51a2,2,0,0,0-1.353-2.371,1.933,1.933,0,0,0-2.371,1.289l-.631,4.523a1.984,1.984,0,0,0,1.289,2.371,1.946,1.946,0,0,0,2.371-1.289Z" transform="translate(-4.893 -11.279)" fill="#fff"/>
      <path id="Trazado_42" data-name="Trazado 42" d="M70.116,121.508l.722-5.785A1.933,1.933,0,0,0,68.9,113.79a1.984,1.984,0,0,0-1.933,1.933l-.722,5.785a1.933,1.933,0,0,0,1.933,1.933A1.971,1.971,0,0,0,70.116,121.508Z" transform="translate(12.285 14.403)" fill="#fff"/>
      <path id="Trazado_43" data-name="Trazado 43" d="M70.294,115.237Q71,91.709,70.036,68.207c-.1-2.474-3.969-2.487-3.866,0q.992,23.515.258,47.031C66.351,117.724,70.216,117.724,70.294,115.237Z" transform="translate(12.261 0.715)" fill="#fff"/>
      <path id="Trazado_44" data-name="Trazado 44" d="M329.006,79.213a88.779,88.779,0,0,0,11.416,31.543,1.933,1.933,0,0,0,3.337-1.946,86.163,86.163,0,0,1-11.03-30.628C332.344,75.734,328.62,76.778,329.006,79.213Z" transform="translate(88.084 3.727)" fill="#fff"/>
      <path id="Trazado_45" data-name="Trazado 45" d="M325.26,62.242l1.366,7.731c.425,2.448,4.149,1.417,3.724-1.018l-1.289-7.731c-.438-2.448-4.162-1.417-3.737,1.018Z" transform="translate(87.011 -1.167)" fill="#fff"/>
      <path id="Trazado_46" data-name="Trazado 46" d="M346.686,145.251l1.2-4.536a1.933,1.933,0,0,0-3.724-1.018l-1.2,4.523a1.933,1.933,0,0,0,3.724,1.031Z" transform="translate(92.102 21.494)" fill="#fff"/>
      <path id="Trazado_47" data-name="Trazado 47" d="M350.259,131.284a153.126,153.126,0,0,1,5.566-26.569c.722-2.4-3-3.415-3.724-1.031a160.035,160.035,0,0,0-5.708,27.6c-.3,2.461,3.582,2.448,3.866,0Z" transform="translate(93.103 11.095)" fill="#fff"/>
      <path id="Trazado_48" data-name="Trazado 48" d="M454.847,99.178c-.3,14.328,1.288,29.52,12.756,39.467,1.868,1.624,4.626-1.108,2.732-2.732-10.746-9.277-11.906-23.4-11.6-36.735,0-2.487-3.865-2.487-3.865,0Z" transform="translate(124.388 9.649)" fill="#fff"/>
      <path id="Trazado_49" data-name="Trazado 49" d="M473.774,136.863a19.6,19.6,0,0,0,9.316,2.951c2.487.155,2.474-3.711,0-3.865a15.462,15.462,0,0,1-7.37-2.422c-2.113-1.288-4.059,2.023-1.946,3.337Z" transform="translate(129.595 20.012)" fill="#fff"/>
      <path id="Trazado_50" data-name="Trazado 50" d="M503.218,96.2a7.911,7.911,0,0,0,7.808-6.443,1.971,1.971,0,0,0-1.353-2.371,1.933,1.933,0,0,0-2.371,1.289,4.1,4.1,0,0,1-4.085,3.621c-2.487,0-2.487,3.866,0,3.866Z" transform="translate(137.815 6.764)" fill="#fff"/>
      <path id="Trazado_51" data-name="Trazado 51" d="M511.9,86.326a72.517,72.517,0,0,0-6.919-32.612c-1.057-2.255-4.394-.3-3.337,1.946a68.046,68.046,0,0,1,6.443,30.666c-.064,2.487,3.8,2.487,3.865,0Z" transform="translate(137.84 -3.218)" fill="#fff"/>
      <path id="Trazado_52" data-name="Trazado 52" d="M567.376,98.223q3.492,22.575,5.863,45.291c.258,2.448,4.123,2.474,3.865,0q-2.409-23.193-5.992-46.309c-.386-2.461-4.11-1.417-3.737,1.018Z" transform="translate(156.855 9.212)" fill="#fff"/>
      <path id="Trazado_53" data-name="Trazado 53" d="M570.569,87.608a38.765,38.765,0,0,1-1.443-10.385,1.933,1.933,0,1,0-3.865,0,43.329,43.329,0,0,0,1.572,11.416,1.946,1.946,0,0,0,3.737-1.031Z" transform="translate(156.253 3.295)" fill="#fff"/>
      <path id="Trazado_54" data-name="Trazado 54" d="M587.229,56.812a7.821,7.821,0,0,0,5.837-7.589,1.933,1.933,0,0,0-3.866,0,3.865,3.865,0,0,1-3,3.866c-2.409.606-1.392,4.342,1.031,3.737Z" transform="translate(161.896 -4.783)" fill="#fff"/>
      <path id="Trazado_55" data-name="Trazado 55" d="M557.4,16.722a94.573,94.573,0,0,1,1.791,24.623c-.142,2.487,3.724,2.474,3.866,0a98.556,98.556,0,0,0-1.933-25.654C560.622,13.256,556.9,14.287,557.4,16.722Z" transform="translate(153.972 -14.301)" fill="#fff"/>
      <path id="Trazado_56" data-name="Trazado 56" d="M629.653,125.011c15.063,5.85,30.757-1.4,36.581-16.3.9-2.319-2.835-3.324-3.724-1.031-5.154,13.1-18.89,18.632-31.839,13.607C628.351,120.385,627.346,124.122,629.653,125.011Z" transform="translate(174.453 12.266)" fill="#fff"/>
      <path id="Trazado_57" data-name="Trazado 57" d="M663.34,105.177a18.039,18.039,0,0,0,1.005-15.037c-.876-2.294-4.613-1.289-3.724,1.031a14.173,14.173,0,0,1-.567,12.048c-1.16,2.2,2.178,4.162,3.35,1.959Z" transform="translate(183.532 7.206)" fill="#fff"/>
      <path id="Trazado_58" data-name="Trazado 58" d="M620.277,46.243a25.667,25.667,0,0,0,13.246,18.529c2.191,1.173,4.136-2.152,1.946-3.337A22.059,22.059,0,0,1,624,45.213C623.6,42.764,619.877,43.808,620.277,46.243Z" transform="translate(172.117 -5.785)" fill="#fff"/>
      <path id="Trazado_59" data-name="Trazado 59" d="M624.956,38.457A5.154,5.154,0,0,1,627.533,36a1.984,1.984,0,0,0,1.353-2.371,1.933,1.933,0,0,0-2.371-1.289,9.02,9.02,0,0,0-4.935,4.226,1.935,1.935,0,0,0,3.337,1.959Z" transform="translate(172.424 -9.118)" fill="#fff"/>
    </g>
  </g>
</svg>
