<svg xmlns="http://www.w3.org/2000/svg" width="52.349" height="34.899" viewBox="0 0 52.349 34.899">
  <path id="Icon_metro-mastercard" data-name="Icon metro-mastercard" d="M17.816,28.579h-.3q-1.068,0-1.068.727,0,.5.454.5a.759.759,0,0,0,.636-.341A1.577,1.577,0,0,0,17.816,28.579Zm8.975-.818H28.2v-.068a.349.349,0,0,0,.011-.148q-.011-.057-.023-.159a.639.639,0,0,0-.045-.182.472.472,0,0,0-.1-.148.558.558,0,0,0-.17-.114.648.648,0,0,0-.261-.045q-.636,0-.818.863Zm12.269.818h-.273q-1.091,0-1.091.727,0,.5.454.5a.759.759,0,0,0,.636-.341A1.577,1.577,0,0,0,39.06,28.579Zm7.248-.591q0-.932-.682-.932a.806.806,0,0,0-.7.454,2.224,2.224,0,0,0-.273,1.159q0,.954.636.954a.847.847,0,0,0,.738-.454A2.2,2.2,0,0,0,46.308,27.988Zm-32.831-3.2h1.977l-1,5.953H13.181l.727-4.567L12.3,30.738h-.886l-.091-4.544-.773,4.544h-1.2l1-5.953h1.84l.045,3.7Zm5.748,2.431q0,.136-.091.954-.364,2.295-.386,2.567H17.68l.023-.5a1.562,1.562,0,0,1-1.318.591,1.1,1.1,0,0,1-.852-.364,1.366,1.366,0,0,1-.329-.954,1.684,1.684,0,0,1,.591-1.375,2.533,2.533,0,0,1,1.659-.489,4.9,4.9,0,0,1,.523.023.638.638,0,0,1,.011-.125q.011-.057.023-.1a.313.313,0,0,0,.011-.068q0-.454-.818-.454a4.223,4.223,0,0,0-1.341.227q0-.091.159-1.091a5.566,5.566,0,0,1,1.522-.25q1.681,0,1.681,1.409ZM22.769,25.9l-.182,1.113a6.922,6.922,0,0,0-.932-.068q-.613,0-.613.386a.346.346,0,0,0,.1.273,2.054,2.054,0,0,0,.489.25,1.427,1.427,0,0,1,.909,1.363q0,1.636-1.977,1.613a5.5,5.5,0,0,1-1.318-.136q0-.045.159-1.113a4.432,4.432,0,0,0,1.159.182q.727,0,.727-.432a.354.354,0,0,0-.1-.261,2.03,2.03,0,0,0-.489-.284,1.443,1.443,0,0,1-.977-1.341q0-1.636,1.909-1.636A5.931,5.931,0,0,1,22.769,25.9Zm2,0H25.4l-.159,1.181h-.659q-.045.386-.148.92t-.159.875a4.031,4.031,0,0,0-.057.409q0,.364.432.364a1.494,1.494,0,0,0,.364-.045l-.182,1.068a2.874,2.874,0,0,1-.909.159q-.977,0-1.022-1.068a9.822,9.822,0,0,1,.182-1.272q.068-.454.568-3.317h1.25Zm4.612,1.659a5.092,5.092,0,0,1-.159,1.181H26.7a.778.778,0,0,0,.227.75,1.3,1.3,0,0,0,.863.25,2.912,2.912,0,0,0,1.318-.318l-.2,1.227a5.03,5.03,0,0,1-1.3.182A1.908,1.908,0,0,1,25.45,28.67a3.259,3.259,0,0,1,.625-2.056,1.919,1.919,0,0,1,1.579-.807,1.681,1.681,0,0,1,1.261.477,1.743,1.743,0,0,1,.466,1.272Zm3.158-1.681a5.357,5.357,0,0,0-.5,1.409q-.5-.045-.7.545a23,23,0,0,0-.568,2.908H29.495l.068-.318q.5-2.954.659-4.521H31.38l-.068.75a2.712,2.712,0,0,1,.579-.67.751.751,0,0,1,.648-.1Zm4.249-.932-.2,1.3a2.594,2.594,0,0,0-1.136-.318,1.379,1.379,0,0,0-1.159.625,2.656,2.656,0,0,0-.454,1.6,1.675,1.675,0,0,0,.307,1.068,1.052,1.052,0,0,0,.875.386,2.569,2.569,0,0,0,1.091-.3l-.227,1.341a4.189,4.189,0,0,1-1.136.182,2.042,2.042,0,0,1-1.625-.693,2.759,2.759,0,0,1-.6-1.874,4.043,4.043,0,0,1,.807-2.6A2.54,2.54,0,0,1,35.4,24.648a4.074,4.074,0,0,1,1.386.3Zm3.681,2.272a5.9,5.9,0,0,1-.091.954q-.3,1.795-.386,2.567H38.946l.023-.5a1.587,1.587,0,0,1-1.341.591,1.062,1.062,0,0,1-.841-.364,1.4,1.4,0,0,1-.318-.954,1.7,1.7,0,0,1,.579-1.375,2.486,2.486,0,0,1,1.647-.489,4.523,4.523,0,0,1,.523.023,1.08,1.08,0,0,0,.045-.3q0-.454-.818-.454a4.223,4.223,0,0,0-1.341.227q0-.091.182-1.091a5.566,5.566,0,0,1,1.522-.25q1.659,0,1.659,1.409Zm3.2-1.341a4.378,4.378,0,0,0-.477,1.409.654.654,0,0,0-.716.523,25.612,25.612,0,0,0-.579,2.931H40.628l.068-.318q.432-2.363.659-4.521h1.181a4.61,4.61,0,0,1-.091.75,3.056,3.056,0,0,1,.6-.67.711.711,0,0,1,.625-.1Zm3.2-1.091h1.272l-.977,5.953h-1.2l.068-.432a1.631,1.631,0,0,1-1.181.523,1.348,1.348,0,0,1-1.125-.545,2.32,2.32,0,0,1-.42-1.454,3.534,3.534,0,0,1,.625-2.09,1.785,1.785,0,0,1,1.465-.886,1.475,1.475,0,0,1,1.2.659ZM49.4,27.739a12.36,12.36,0,0,0-19.813-9.861,13.027,13.027,0,0,1,3.885,6.453H32.335a12.234,12.234,0,0,0-3.59-5.748,12.234,12.234,0,0,0-3.59,5.748H24.019A13.027,13.027,0,0,1,27.9,17.878,12.367,12.367,0,0,0,9.739,21.536a12.369,12.369,0,0,0,4.5,16.9A12.409,12.409,0,0,0,27.9,37.6a13.067,13.067,0,0,1-3.749-6h1.136a12.131,12.131,0,0,0,3.454,5.294A12.131,12.131,0,0,0,32.2,31.6h1.136a13.067,13.067,0,0,1-3.749,6A12.339,12.339,0,0,0,49.4,27.738ZM54.919,13.2V42.28a2.949,2.949,0,0,1-2.908,2.908H5.479a2.8,2.8,0,0,1-2.045-.863,2.8,2.8,0,0,1-.863-2.045V13.2a2.8,2.8,0,0,1,.863-2.045,2.8,2.8,0,0,1,2.045-.863H52.011A2.949,2.949,0,0,1,54.919,13.2Z" transform="translate(-2.571 -10.289)" fill="#fff"/>
</svg>
