<?xml version="1.0" encoding="utf-8"?>
<svg viewBox="151.199 106.655 19.798 19.419" width="19.798" height="19.419" xmlns="http://www.w3.org/2000/svg">
  <path id="Icon_awesome-paw" data-name="Icon awesome-paw" d="M 161.096 115.432 C 158.785 115.432 155.51 119.007 155.51 121.259 C 155.51 122.274 156.289 122.884 157.597 122.884 C 159.018 122.884 159.956 122.154 161.096 122.154 C 162.246 122.154 163.187 122.884 164.595 122.884 C 165.903 122.884 166.682 122.278 166.682 121.259 C 166.684 119.005 163.407 115.432 161.096 115.432 Z M 156.812 115.065 C 156.597 114.115 155.697 113.485 154.732 113.607 C 153.831 113.915 153.377 114.919 153.742 115.798 C 153.957 116.748 154.858 117.379 155.823 117.257 C 156.723 116.949 157.177 115.944 156.812 115.065 Z M 159.276 114.461 C 160.176 114.224 160.628 113.008 160.282 111.744 C 159.938 110.48 158.929 109.648 158.028 109.886 C 157.128 110.123 156.678 111.339 157.022 112.602 C 157.366 113.866 158.376 114.698 159.276 114.461 Z M 167.468 113.607 C 166.501 113.486 165.601 114.117 165.387 115.066 C 165.022 115.944 165.474 116.949 166.373 117.258 C 167.338 117.379 168.238 116.749 168.454 115.799 C 168.819 114.92 168.365 113.915 167.464 113.607 Z M 162.917 114.461 C 163.817 114.697 164.826 113.866 165.171 112.602 C 165.515 111.339 165.065 110.123 164.164 109.886 C 163.264 109.648 162.255 110.48 161.91 111.744 C 161.566 113.008 162.016 114.224 162.917 114.461 Z" fill="#c3ff9f" style="" transform="matrix(0.798679, -0.601758, 0.601758, 0.798679, -37.590889, 120.368683)"/>
</svg>