<svg xmlns="http://www.w3.org/2000/svg" width="90.934" height="89.246" viewBox="0 0 90.934 89.246">
  <path id="Icon_awesome-paw" data-name="Icon awesome-paw" d="M34.309,27.982c-10.642,0-25.731,16.452-25.731,26.837,0,4.677,3.593,7.471,9.614,7.471,6.545,0,10.867-3.361,16.117-3.361,5.3,0,9.629,3.361,16.117,3.361,6.021,0,9.614-2.794,9.614-7.471C60.04,44.434,44.951,27.982,34.309,27.982Zm-19.738-1.69c-1.394-4.644-5.688-7.651-9.59-6.718S-.955,25.027.439,29.67s5.688,7.651,9.59,6.718,5.936-5.453,4.542-10.1Zm11.354-2.785c4.146-1.091,6.221-6.693,4.634-12.512s-6.234-9.651-10.381-8.56-6.221,6.693-4.634,12.512S21.78,24.6,25.925,23.507Zm37.711-3.932c-3.9-.933-8.2,2.075-9.59,6.718s.639,9.164,4.542,10.1,8.2-2.075,9.59-6.718S67.539,20.508,63.636,19.575ZM42.693,23.507c4.146,1.091,8.794-2.741,10.381-8.56S52.586,3.528,48.44,2.435,39.646,5.176,38.059,11s.488,11.421,4.634,12.512Z" transform="matrix(0.799, -0.602, 0.602, 0.799, -1.353, 39.498)" fill="#c3ff9f"/>
</svg>
