<svg xmlns="http://www.w3.org/2000/svg" width="30.373" height="29.809" viewBox="0 0 30.373 29.809">
  <path id="Icon_awesome-paw" data-name="Icon awesome-paw" d="M11.459,10.844c-3.555,0-8.595,5.5-8.595,8.964,0,1.562,1.2,2.5,3.211,2.5,2.186,0,3.63-1.123,5.383-1.123,1.769,0,3.216,1.123,5.383,1.123,2.011,0,3.211-.933,3.211-2.5C20.054,16.34,15.014,10.844,11.459,10.844ZM4.867,10.28a2.907,2.907,0,0,0-3.2-2.244A2.536,2.536,0,0,0,.146,11.408a2.907,2.907,0,0,0,3.2,2.244A2.536,2.536,0,0,0,4.867,10.28Zm3.792-.93c1.385-.364,2.078-2.235,1.548-4.179S8.124,1.947,6.739,2.312,4.661,4.547,5.191,6.491,7.274,9.715,8.659,9.35Zm12.6-1.313a2.908,2.908,0,0,0-3.2,2.244,2.536,2.536,0,0,0,1.517,3.372,2.908,2.908,0,0,0,3.2-2.244A2.536,2.536,0,0,0,21.255,8.036Zm-7,1.313c1.385.364,2.937-.915,3.467-2.859s-.163-3.814-1.548-4.179-2.937.915-3.467,2.859.163,3.815,1.548,4.179Z" transform="matrix(0.799, -0.602, 0.602, 0.799, -1.353, 11.996)" fill="#c3ff9f"/>
</svg>
