<svg xmlns="http://www.w3.org/2000/svg" width="125.087" height="109.452" viewBox="0 0 125.087 109.452">
  <path id="Icon_awesome-paw" data-name="Icon awesome-paw" d="M62.544,49.159c-19.4,0-46.907,29.991-46.907,48.923,0,8.526,6.55,13.62,17.527,13.62,11.932,0,19.811-6.127,29.381-6.127,9.653,0,17.554,6.127,29.381,6.127,10.977,0,17.527-5.094,17.527-13.62C109.452,79.15,81.945,49.159,62.544,49.159ZM26.563,46.078C24.022,37.612,16.194,32.13,9.08,33.831S-1.741,43.772.8,52.237,11.169,66.184,18.283,64.484s10.82-9.941,8.28-18.406ZM47.26,41c7.559-1.989,11.341-12.2,8.448-22.809S44.343.6,36.784,2.588,25.444,14.789,28.336,25.4,39.7,42.992,47.26,41Zm68.746-7.168c-7.114-1.7-14.939,3.782-17.483,12.247s1.165,16.706,8.28,18.406,14.939-3.782,17.483-12.247S123.121,35.533,116.007,33.833ZM77.828,41c7.559,1.989,16.032-5,18.924-15.6S95.863,4.579,88.3,2.588s-16.032,5-18.924,15.6S70.269,39.012,77.828,41Z" transform="translate(0.001 -2.25)" fill="#c3ff9f"/>
</svg>
