<?xml version="1.0" encoding="utf-8"?>
<svg viewBox="188.119 196.638 27.973 27.432" width="27.973" height="27.432" xmlns="http://www.w3.org/2000/svg">
  <path id="Icon_awesome-paw" data-name="Icon awesome-paw" d="M 202.061 209.037 C 198.798 209.037 193.594 214.085 193.229 217.263 C 193.065 218.697 194.066 219.557 195.912 219.557 C 197.918 219.557 199.362 218.527 200.97 218.527 C 202.594 218.527 203.804 219.557 205.793 219.557 C 207.638 219.557 208.838 218.702 209.003 217.263 C 209.37 214.081 205.323 209.037 202.061 209.037 Z M 196.071 208.519 C 195.921 207.179 194.753 206.288 193.37 206.46 C 192.049 206.895 191.247 208.314 191.619 209.555 C 191.768 210.895 192.936 211.786 194.32 211.614 C 195.641 211.178 196.443 209.76 196.071 208.519 Z M 199.648 207.666 C 200.958 207.332 201.79 205.615 201.509 203.83 C 201.227 202.046 199.937 200.872 198.627 201.207 C 197.318 201.542 196.485 203.258 196.767 205.042 C 197.049 206.827 198.338 208.001 199.648 207.666 Z M 211.35 206.46 C 210.006 206.289 208.634 207.181 208.177 208.52 C 207.519 209.76 207.994 211.178 209.214 211.615 C 210.558 211.787 211.93 210.896 212.387 209.556 C 213.045 208.314 212.568 206.895 211.346 206.46 Z M 204.787 207.666 C 206.02 208 207.579 206.827 208.271 205.042 C 208.961 203.258 208.523 201.542 207.29 201.207 C 206.057 200.872 204.498 202.046 203.807 203.83 C 203.116 205.615 203.555 207.332 204.787 207.666 Z" fill="#c3ff9f" style="" transform="matrix(0.798679, -0.601758, 0.601758, 0.798679, -85.893669, 163.96727)"/>
</svg>