<svg xmlns="http://www.w3.org/2000/svg" width="44.87" height="34.899" viewBox="0 0 44.87 34.899">
  <path id="Icon_awesome-cc-visa" data-name="Icon awesome-cc-visa" d="M36.621,17.775s.592,2.9.724,3.505h-2.6c.257-.693,1.246-3.389,1.246-3.389-.016.023.257-.709.413-1.161l.218,1.044ZM44.87,5.989V33.41a3.74,3.74,0,0,1-3.739,3.739H3.739A3.74,3.74,0,0,1,0,33.41V5.989A3.74,3.74,0,0,1,3.739,2.25H41.131A3.74,3.74,0,0,1,44.87,5.989ZM11.88,25.557,16.8,13.468H13.492l-3.061,8.257L10.1,20.05,9.005,14.488a1.3,1.3,0,0,0-1.418-1.02H2.547l-.055.241A12.362,12.362,0,0,1,5.78,15.041L8.569,25.557Zm7.354.016L21.2,13.468H18.065L16.11,25.573h3.124Zm10.9-3.957c.016-1.379-.826-2.43-2.625-3.3-1.1-.553-1.768-.927-1.768-1.5.016-.514.569-1.044,1.8-1.044a5.368,5.368,0,0,1,2.329.46l.28.132.428-2.617a7.779,7.779,0,0,0-2.8-.514c-3.093,0-5.266,1.651-5.282,4-.023,1.737,1.558,2.7,2.742,3.287,1.207.592,1.62.982,1.62,1.5-.016.81-.982,1.184-1.877,1.184a6.24,6.24,0,0,1-2.937-.647l-.413-.195L21.189,25.1a9.559,9.559,0,0,0,3.49.647C27.966,25.752,30.108,24.124,30.132,21.616Zm11,3.957L38.607,13.468H36.184a1.541,1.541,0,0,0-1.636,1L29.9,25.573h3.287s.538-1.5.654-1.815h4.02c.093.428.374,1.815.374,1.815Z" transform="translate(0 -2.25)" fill="#fff"/>
</svg>
