<?xml version="1.0" encoding="utf-8"?>
<svg viewBox="0 0 38.19 38.098" width="38.19px" height="38.098px" xmlns="http://www.w3.org/2000/svg" xmlns:bx="https://boxy-svg.com">
  <defs>
    <filter id="Icon_ionic-logo-whatsapp" x="0" y="0" width="52.899" height="52.899" filterUnits="userSpaceOnUse" bx:pinned="true">
      <feOffset dy="3" input="SourceAlpha"/>
      <feGaussianBlur stdDeviation="3" result="blur"/>
      <feFlood flood-opacity="0.161"/>
      <feComposite operator="in" in2="blur"/>
      <feComposite in="SourceGraphic"/>
    </filter>
  </defs>
  <g transform="matrix(1, 0, 0, 1, -7.948554, -5.116311)" filter="url(#Icon_ionic-logo-whatsapp)" style="">
    <path id="Icon_ionic-logo-whatsapp-2" data-name="Icon ionic-logo-whatsapp" d="M20.016,2.25a17.067,17.067,0,0,0-17.132,17,16.825,16.825,0,0,0,2.458,8.778L2.25,37.149l9.485-3.013A17.162,17.162,0,0,0,37.149,19.25,17.067,17.067,0,0,0,20.016,2.25Zm8.519,23.456a4.425,4.425,0,0,1-3.03,1.953c-.8.043-.826.623-5.207-1.28s-7.015-6.531-7.223-6.829A8.4,8.4,0,0,1,11.459,15a4.855,4.855,0,0,1,1.667-3.562,1.678,1.678,0,0,1,1.187-.5c.345-.006.568-.01.824,0s.638-.053.97.829,1.125,3.05,1.227,3.271a.794.794,0,0,1,.008.761,2.975,2.975,0,0,1-.464.708c-.229.245-.481.549-.685.736-.227.208-.465.434-.226.878a13.11,13.11,0,0,0,2.32,3.1A11.953,11.953,0,0,0,21.721,23.5c.43.234.686.208.952-.072s1.14-1.227,1.449-1.649.6-.341.993-.181,2.505,1.29,2.935,1.523.716.353.819.538A3.6,3.6,0,0,1,28.535,25.706Z" transform="translate(6.75 3.75)" style="fill: rgb(255, 255, 255); paint-order: fill;"/>
  </g>
</svg>